<svg xmlns="http://www.w3.org/2000/svg" xmlns:xlink="http://www.w3.org/1999/xlink" width="51" height="43.167" viewBox="0 0 51 43.167">
  <defs>
    <clipPath id="clip-path">
      <path id="Path_4858" data-name="Path 4858" d="M87.67,93.5l-.438,3.956s1.917,2.234,7.012,2.234c4.819,0,7.011-2.234,7.011-2.234l-.438-3.956Z" transform="translate(-87.232 -93.5)" fill="#303132"/>
    </clipPath>
    <clipPath id="clip-path-2">
      <path id="Path_4880" data-name="Path 4880" d="M156.617,59.759l-.585,5.277s2.556,2.979,9.352,2.979c6.428,0,9.352-2.979,9.352-2.979l-.585-5.277Z" transform="translate(-156.032 -59.759)" fill="#303132"/>
    </clipPath>
  </defs>
  <g id="Group_3809" data-name="Group 3809" transform="translate(-65.561 -36.237)">
    <g id="Group_3804" data-name="Group 3804" transform="translate(65.561 47.01)">
      <rect id="Rectangle_3088" data-name="Rectangle 3088" width="14.023" height="17.801" transform="translate(5.891 9.401)" fill="#f0804c"/>
      <g id="Group_3803" data-name="Group 3803" transform="translate(0 0)">
        <path id="Path_4842" data-name="Path 4842" d="M77.947,159.684l4.879,5.894v3.684h-11.2v-6.488Z" transform="translate(-69.976 -136.899)" fill="#303132"/>
        <path id="Path_4843" data-name="Path 4843" d="M117.673,159.684l-4.878,5.894v3.684h11.2v-6.488Z" transform="translate(-99.955 -136.899)" fill="#303132"/>
        <path id="Path_4844" data-name="Path 4844" d="M95.717,156.859l-.836.768,4.869,5.894,5-5.894-.721-.768-4.265,2.816Z" transform="translate(-86.911 -134.842)" fill="#c2dded"/>
        <path id="Path_4845" data-name="Path 4845" d="M108.453,165.389l-.748,2.6,1.412,1.683,1.387-1.658-.646-2.708-.76.519Z" transform="translate(-96.249 -140.994)" fill="#ea5237"/>
        <path id="Path_4846" data-name="Path 4846" d="M108.784,137.334l-2.408,1.391-2.409-1.391v-3.476l2.409-1.391,2.408,1.391Z" transform="translate(-93.526 -117.081)" fill="#e8b083"/>
        <path id="Path_4847" data-name="Path 4847" d="M85.929,117.972a1.175,1.175,0,0,1-1.175,1.175h0a1.175,1.175,0,0,1-1.175-1.175v-.839a1.175,1.175,0,0,1,1.175-1.175h0a1.175,1.175,0,0,1,1.175,1.175Z" transform="translate(-78.681 -105.06)" fill="#e8b083"/>
        <path id="Path_4848" data-name="Path 4848" d="M135.969,117.972a1.175,1.175,0,0,1-1.175,1.175h0a1.176,1.176,0,0,1-1.176-1.175v-.839a1.175,1.175,0,0,1,1.176-1.175h0a1.175,1.175,0,0,1,1.175,1.175Z" transform="translate(-115.118 -105.06)" fill="#e8b083"/>
        <rect id="Rectangle_3089" data-name="Rectangle 3089" width="13.126" height="16.838" rx="6.563" transform="translate(6.286 2.198)" fill="#fbc89a"/>
        <path id="Path_4849" data-name="Path 4849" d="M99.281,149.646,102,151.234l-1.393,2.244-2.65-1.872Z" transform="translate(-89.15 -129.59)" fill="#e6f5fe"/>
        <path id="Path_4850" data-name="Path 4850" d="M115.541,149.646l-2.747,1.588,1.416,2.286,2.925-1.843Z" transform="translate(-99.955 -129.59)" fill="#e6f5fe"/>
        <path id="Path_4851" data-name="Path 4851" d="M109.089,155.488l-1.383,2.244,1.393.944,1.406-.9Z" transform="translate(-96.249 -133.844)" fill="#ea5237"/>
        <path id="Path_4852" data-name="Path 4852" d="M70.459,177.266v-4.141a2.449,2.449,0,1,0-4.9,0v4.141Z" transform="translate(-65.561 -144.902)" fill="#494b54"/>
        <path id="Path_4853" data-name="Path 4853" d="M142.044,177.266v-4.141a2.449,2.449,0,1,1,4.9,0v4.141Z" transform="translate(-121.253 -144.902)" fill="#494b54"/>
        <path id="Path_4854" data-name="Path 4854" d="M87.232,108.017l.182,5.338a16.157,16.157,0,0,0,.858-4.711S88.447,107.893,87.232,108.017Z" transform="translate(-81.341 -99.267)" fill="#f0804c"/>
        <path id="Path_4855" data-name="Path 4855" d="M136.013,107.989l-.182,5.338a20.072,20.072,0,0,1-.858-5.069S134.8,107.866,136.013,107.989Z" transform="translate(-116.098 -99.24)" fill="#f0804c"/>
        <g id="Group_3802" data-name="Group 3802" transform="translate(2.792)">
          <g id="Group_3801" data-name="Group 3801" transform="translate(3.099 4.793)">
            <path id="Path_4856" data-name="Path 4856" d="M87.67,93.5l-.438,3.956s1.917,2.234,7.012,2.234c4.819,0,7.011-2.234,7.011-2.234l-.438-3.956Z" transform="translate(-87.232 -93.5)" fill="#303132"/>
            <g id="Group_3800" data-name="Group 3800" clip-path="url(#clip-path)">
              <path id="Path_4857" data-name="Path 4857" d="M94.239,106.362c-4.445,0-6.49-1.666-7.012-2.176l.188-.191c.357.351,2.369,2.1,6.824,2.1h0c4.1,0,6.25-1.606,6.813-2.1l.176.2c-.58.508-2.8,2.165-6.989,2.165Z" transform="translate(-87.228 -101.142)" fill="#1d1d1b"/>
            </g>
          </g>
          <rect id="Rectangle_3090" data-name="Rectangle 3090" width="20.221" height="1.103" transform="translate(0 2.77)" fill="#494b54"/>
          <path id="Path_4859" data-name="Path 4859" d="M85.942,79.922l-10.11,2.77,10.11,2.75,10.111-2.75Z" transform="translate(-75.832 -78.82)" fill="#494b54"/>
          <path id="Path_4860" data-name="Path 4860" d="M85.942,75.866l-10.11,2.77,10.11,2.75,10.111-2.75Z" transform="translate(-75.832 -75.866)" fill="#818286"/>
          <path id="Path_4861" data-name="Path 4861" d="M110.912,84.548c0,.261-.563.472-1.257.472s-1.259-.211-1.259-.472.564-.472,1.259-.472S110.912,84.287,110.912,84.548Z" transform="translate(-99.544 -81.844)" fill="#24252a"/>
          <path id="Path_4862" data-name="Path 4862" d="M77.916,89.7a.274.274,0,0,1-.274-.275V84.962l9.611-.276a.274.274,0,0,1,.015.549l-9.077.261v3.932A.275.275,0,0,1,77.916,89.7Z" transform="translate(-77.15 -82.288)" fill="#fcc55a"/>
          <path id="Path_4863" data-name="Path 4863" d="M77.373,102.13h-.723l-.256,2.237h1.236Z" transform="translate(-76.24 -94.991)" fill="#fcc55a"/>
        </g>
      </g>
    </g>
    <g id="Group_3808" data-name="Group 3808" transform="translate(82.296 36.237)">
      <path id="Path_4864" data-name="Path 4864" d="M143.645,148.037l6.507,7.862v4.913h-14.94v-8.654Z" transform="translate(-133.014 -117.645)" fill="#303132"/>
      <path id="Path_4865" data-name="Path 4865" d="M196.633,148.037l-6.507,7.862v4.913h14.94v-8.654Z" transform="translate(-173 -117.645)" fill="#303132"/>
      <path id="Path_4866" data-name="Path 4866" d="M167.349,144.269l-1.115,1.024,6.495,7.862,6.662-7.862-.96-1.024-5.69,3.756Z" transform="translate(-155.603 -114.902)" fill="#c2dded"/>
      <path id="Path_4867" data-name="Path 4867" d="M184.337,155.645l-1,3.47,1.882,2.244,1.851-2.212-.862-3.612-1.014.693Z" transform="translate(-168.059 -123.106)" fill="#ea5237"/>
      <path id="Path_4868" data-name="Path 4868" d="M184.778,118.225l-3.213,1.855-3.213-1.855v-4.638l3.213-1.855,3.213,1.855Z" transform="translate(-164.427 -91.21)" fill="#e8b083"/>
      <path id="Path_4869" data-name="Path 4869" d="M154.294,92.4a1.567,1.567,0,0,1-1.567,1.567h0a1.568,1.568,0,0,1-1.567-1.567V91.282a1.567,1.567,0,0,1,1.567-1.568h0a1.567,1.567,0,0,1,1.567,1.568Z" transform="translate(-144.626 -75.177)" fill="#e8b083"/>
      <path id="Path_4870" data-name="Path 4870" d="M221.038,92.4a1.568,1.568,0,0,1-1.568,1.567h0A1.568,1.568,0,0,1,217.9,92.4V91.282a1.567,1.567,0,0,1,1.567-1.568h0a1.568,1.568,0,0,1,1.568,1.568Z" transform="translate(-193.226 -75.177)" fill="#e8b083"/>
      <rect id="Rectangle_3091" data-name="Rectangle 3091" width="17.508" height="22.459" rx="8.754" transform="translate(8.384 2.933)" fill="#fbc89a"/>
      <path id="Path_4871" data-name="Path 4871" d="M172.1,134.648l3.625,2.118-1.857,2.993-3.535-2.5Z" transform="translate(-158.589 -107.896)" fill="#e6f5fe"/>
      <path id="Path_4872" data-name="Path 4872" d="M193.791,134.648l-3.664,2.118,1.889,3.049,3.9-2.458Z" transform="translate(-173 -107.896)" fill="#e6f5fe"/>
      <path id="Path_4873" data-name="Path 4873" d="M185.185,142.438l-1.845,2.993,1.857,1.26,1.876-1.2Z" transform="translate(-168.059 -113.569)" fill="#ea5237"/>
      <path id="Path_4874" data-name="Path 4874" d="M133.658,171.488v-5.524a3.267,3.267,0,0,0-6.533,0v5.524Z" transform="translate(-127.125 -128.32)" fill="#494b54"/>
      <path id="Path_4875" data-name="Path 4875" d="M229.138,171.488v-5.524a3.267,3.267,0,0,1,6.534,0v5.524Z" transform="translate(-201.407 -128.32)" fill="#494b54"/>
      <path id="Path_4876" data-name="Path 4876" d="M156.032,79.123l.243,7.12a21.538,21.538,0,0,0,1.144-6.284S157.652,78.958,156.032,79.123Z" transform="translate(-148.174 -67.452)" fill="#f0804c"/>
      <path id="Path_4877" data-name="Path 4877" d="M221.094,79.086l-.243,7.12a26.79,26.79,0,0,1-1.144-6.761S219.475,78.921,221.094,79.086Z" transform="translate(-194.531 -67.415)" fill="#f0804c"/>
      <g id="Group_3807" data-name="Group 3807" transform="translate(3.724)">
        <g id="Group_3806" data-name="Group 3806" transform="translate(4.134 6.394)">
          <path id="Path_4878" data-name="Path 4878" d="M156.617,59.759l-.585,5.277s2.556,2.979,9.352,2.979c6.428,0,9.352-2.979,9.352-2.979l-.585-5.277Z" transform="translate(-156.032 -59.759)" fill="#303132"/>
          <g id="Group_3805" data-name="Group 3805" clip-path="url(#clip-path-2)">
            <path id="Path_4879" data-name="Path 4879" d="M165.378,76.914c-5.93,0-8.657-2.221-9.353-2.9l.25-.255c.477.467,3.159,2.8,9.1,2.8h0c5.465,0,8.336-2.142,9.086-2.8l.235.269c-.774.677-3.731,2.887-9.322,2.887Z" transform="translate(-156.027 -69.952)" fill="#1d1d1b"/>
          </g>
        </g>
        <rect id="Rectangle_3092" data-name="Rectangle 3092" width="26.971" height="1.47" transform="translate(0 3.694)" fill="#494b54"/>
        <path id="Path_4881" data-name="Path 4881" d="M154.312,41.647l-13.486,3.694,13.486,3.668L167.8,45.341Z" transform="translate(-140.826 -40.177)" fill="#494b54"/>
        <path id="Path_4882" data-name="Path 4882" d="M154.312,36.237l-13.486,3.694L154.312,43.6,167.8,39.932Z" transform="translate(-140.826 -36.237)" fill="#818286"/>
        <path id="Path_4883" data-name="Path 4883" d="M187.618,47.817c0,.348-.752.63-1.678.63s-1.679-.282-1.679-.63.752-.629,1.679-.629S187.618,47.47,187.618,47.817Z" transform="translate(-172.454 -44.211)" fill="#24252a"/>
        <path id="Path_4884" data-name="Path 4884" d="M143.605,54.693a.366.366,0,0,1-.365-.366V48.37L156.059,48a.366.366,0,1,1,.021.732l-12.108.348v5.245A.366.366,0,0,1,143.605,54.693Z" transform="translate(-142.584 -44.803)" fill="#fcc55a"/>
        <path id="Path_4885" data-name="Path 4885" d="M142.881,71.27h-.965l-.342,2.984h1.649Z" transform="translate(-141.371 -61.747)" fill="#fcc55a"/>
      </g>
    </g>
  </g>
</svg>
