<svg xmlns="http://www.w3.org/2000/svg" width="54.177" height="40" viewBox="0 0 54.177 40">
  <g id="Group_3763" data-name="Group 3763" transform="translate(-246.905 -312.547)">
    <path id="Path_4779" data-name="Path 4779" d="M383.925,370.011a2.966,2.966,0,0,1-.15-.48A2.837,2.837,0,0,0,382,367.188a2.576,2.576,0,0,1-1.45-1.73,2.7,2.7,0,0,1-.083-.749c0-.378.008-.757.01-1.136a2.825,2.825,0,0,0-.414-1.5c-.249-.414-.5-.828-.755-1.238a2.709,2.709,0,0,1-.134-2.817c.151-.3.3-.6.437-.909a2.608,2.608,0,0,0,.214-1.416c-.051-.4-.095-.793-.147-1.189a2.666,2.666,0,0,1,1.491-2.746c.153-.068.308-.133.462-.2a2.635,2.635,0,0,0,1.381-1.32c.073-.151.143-.3.213-.457a2.668,2.668,0,0,1,2.547-1.637c.294-.007.589-.01.883-.008a2.64,2.64,0,0,0,1.43-.423c.34-.209.678-.421,1.018-.632a2.647,2.647,0,0,1,3.026.021,9.962,9.962,0,0,1,1.057.795,4.5,4.5,0,0,0,3.066,1.119c.294,0,.589-.017.883,0a2.841,2.841,0,0,1,2.6,2.04,2.628,2.628,0,0,1,.076.875,2.9,2.9,0,0,0,1.247,2.611,2.908,2.908,0,0,1,1.2,1.86,2.4,2.4,0,0,1,0,1c-.083.347-.161.7-.263,1.038a2.783,2.783,0,0,0,.024,1.733c.187.557.339,1.127.48,1.7a2.163,2.163,0,0,1-.492,1.941,2.854,2.854,0,0,1-.266.268c-.076.073-.161.137-.232.213a2.223,2.223,0,0,0-.512,2.444c.058.157.139.306.208.459a2.255,2.255,0,0,1-.258,2.38c-.16.22-.3.453-.452.681a.35.35,0,0,1-.413.2c-1.014-.106-2.033,0-3.047-.073a6.635,6.635,0,0,1-1.3-.541A3.468,3.468,0,0,1,394,366.968a.766.766,0,0,1,.045-.185,1.507,1.507,0,0,1,.182-.334,12.959,12.959,0,0,0,2.61-4.354,3.439,3.439,0,0,1,.716-1.169,3.32,3.32,0,0,0,.952-2.335,1.635,1.635,0,0,0-.047-.438.7.7,0,0,0-.533-.563c-.3-.055-.455.162-.6.371-.537.749-.532.744-1.2.075a2.109,2.109,0,0,0-1.651-.656,2.464,2.464,0,0,1-2.368-1.273,2.225,2.225,0,0,0-2.223-1.135,2.867,2.867,0,0,1-2.148-.521,4.5,4.5,0,0,1-.971-1.382c-.437-.76-.7-.8-1.208-.082a3.261,3.261,0,0,0-.555,2.275,18.389,18.389,0,0,1,.2,2.068,2.014,2.014,0,0,1-.054.563c-.062.2-.141.416-.38.458-.2.035-.279-.155-.388-.275-.2-.223-.337-.615-.73-.459a.928.928,0,0,0-.576.968,4.088,4.088,0,0,0,1.013,2.4,4.689,4.689,0,0,1,.8,1.344,12.464,12.464,0,0,0,2.388,3.906,1.168,1.168,0,0,1,.295.479,2.474,2.474,0,0,1,.016.787,3.536,3.536,0,0,1-2.63,2.723c-.056.021-.113.039-.17.057a1.361,1.361,0,0,1-.167.048,1.065,1.065,0,0,1-.5-.008.341.341,0,0,1-.129-.089C383.943,370.163,383.968,370.078,383.925,370.011Z" transform="translate(-103.678 -26.773)" fill="#2d2d2d"/>
    <path id="Path_4780" data-name="Path 4780" d="M280.289,443.723a.341.341,0,0,1,.014.115c-.457.326-.978.169-1.466.167a5.42,5.42,0,0,0-5.513,5.072.814.814,0,0,0,.391.864.9.9,0,0,1,.436.441,4.218,4.218,0,0,1,.028,1.432c-.083.768-.055.8.746.812,1.168.017,2.337-.038,3.505.032a.6.6,0,0,1,.212.075.146.146,0,0,1,.066.191c-.252.007-.5.019-.756.019l-30.284-.009c-.189,0-.378,0-.567-.012a.191.191,0,0,1-.184-.263c.163-.629.325-1.259.5-1.884.279-.989.54-1.984.861-2.96a9.029,9.029,0,0,1,2.215-3.62,9.341,9.341,0,0,1,2.7-1.934c1.373-.634,2.742-1.276,4.114-1.912a.88.88,0,0,1,.183-.042c.4.381.613.965,1.228,1.1a19.115,19.115,0,0,1,1.159,2.495c.047.093.073.2.119.291.232.478.363.5.706.115.264-.3.489-.629.755-.925.15-.167.275-.387.559-.342a10.833,10.833,0,0,0,5.456,0c.342-.052.47.228.633.432.235.295.47.591.707.884.259.319.476.295.643-.1.306-.713.6-1.431.919-2.138a1.725,1.725,0,0,1,.393-.706c.622-.136.81-.758,1.242-1.107.653.285,1.308.564,1.957.858.745.338,1.484.688,2.226,1.034a9.543,9.543,0,0,1,2.077,1.292.965.965,0,0,0,.688.237c.42-.012.84-.009,1.26-.013Z" transform="translate(0 -100.397)" fill="#ebdca5"/>
    <path id="Path_4781" data-name="Path 4781" d="M290.841,361.326c-.306-.253-.6-.518-.921-.755a2.336,2.336,0,0,1-.886-1.264c-.329-1.149-.665-2.3-1-3.444-.05-.172-.1-.208-.261-.095a.4.4,0,0,1-.518-.008,2.334,2.334,0,0,1-.418-.38,5.311,5.311,0,0,1-1.154-2.349,1.791,1.791,0,0,1,.166-1.344c.237-.381.524-.653,1.027-.5.148.045.145-.111.193-.193.312.072.247.355.294.559a10.51,10.51,0,0,0,.409,1.571,11.527,11.527,0,0,0,.035-2.745,6.949,6.949,0,0,1,.975-4.348,1.293,1.293,0,0,1,1.707-.672c1.24.326,2.481.646,3.716.991a3.357,3.357,0,0,0,1.8.022c1.179-.308,2.359-.615,3.533-.943,1.223-.341,1.72-.122,2.274,1.025a7.1,7.1,0,0,1,.713,3.845,7.642,7.642,0,0,0,.175,3.064,8.638,8.638,0,0,0,.574-2.131c.029-.226-.064-.521.276-.612.009.083.023.166.025.249,0,.113.026.2.151.238a1.436,1.436,0,0,1,.959,1.809,5.281,5.281,0,0,1-1.262,2.563,1.648,1.648,0,0,1-.228.216c-.214.169-.435.259-.673.033-.023-.022-.077-.01-.15-.017-.185.632-.371,1.269-.558,1.907-.165.562-.336,1.123-.5,1.687a2.333,2.333,0,0,1-.883,1.263c-.317.237-.615.5-.921.753-.283.291-.274.717-.482,1.043-.326-.057-.241-.268-.2-.444a9.945,9.945,0,0,1-2.711,1.492,2.788,2.788,0,0,1-2.146-.095,10.378,10.378,0,0,1-2.5-1.436c-.069-.055-.136-.111-.209-.161C291.1,361.609,290.9,361.545,290.841,361.326Z" transform="translate(-30.429 -25.714)" fill="#e0b082"/>
    <path id="Path_4782" data-name="Path 4782" d="M370.313,463.263c-.2-.114-.4-.231-.6-.339a.479.479,0,0,1-.269-.457,5.1,5.1,0,0,1,.322-1.976,5.466,5.466,0,0,1,4.564-3.666,8.163,8.163,0,0,1,1.132-.015c.378,0,.755-.014,1.133-.021l.687.023c.313.126.374.434.493.7.348.763.629,1.561,1.051,2.287a5.063,5.063,0,0,0,4.686,2.763,4.979,4.979,0,0,0,4.559-2.853c.349-.67.636-1.37.937-2.062a1.727,1.727,0,0,1,.521-.843c.725,0,1.45,0,2.174,0a3.1,3.1,0,0,1,1.106.1c.107.04.2-.033.293-.069a.945.945,0,0,0,.441.223,5.492,5.492,0,0,1,3.74,4.207,5.992,5.992,0,0,1,.091,1.251.436.436,0,0,1-.291.432c-.206.1-.4.22-.606.331a4.862,4.862,0,0,1-1.8,1.1,13.149,13.149,0,0,1-3.027,1.481c-.147,0-.294.015-.441.015H375.5c-.084,0-.168,0-.252-.006-.076-.054-.184-.018-.254-.089a.185.185,0,0,0-.1-.03,38.625,38.625,0,0,1-4.259-2.182A1.217,1.217,0,0,1,370.313,463.263Z" transform="translate(-96.29 -113.348)" fill="#933f37"/>
    <path id="Path_4783" data-name="Path 4783" d="M307.323,324.9a.826.826,0,0,0-.1.484,9.989,9.989,0,0,1-.6,2.568c-.024.07-.04.173-.157.156-.1-.014-.139-.094-.169-.169a2.512,2.512,0,0,1-.2-.981c.009-.883-.013-1.768.048-2.648a6.847,6.847,0,0,0-.979-3.974,1.15,1.15,0,0,0-1.386-.565c-1.353.383-2.72.719-4.077,1.09a2.848,2.848,0,0,1-1.551-.005c-1.275-.352-2.556-.684-3.834-1.024-.122-.032-.241-.075-.365-.1a.984.984,0,0,0-1.1.428,6.528,6.528,0,0,0-1.06,2.8,10.616,10.616,0,0,0-.022,1.825c.045.713.034,1.429.03,2.144a1.846,1.846,0,0,1-.26,1.016c-.135-.025-.113-.15-.136-.233a12.493,12.493,0,0,1-.48-2.277.519.519,0,0,0-.08-.164,26.974,26.974,0,0,1-.316-3.706c0-.25-.066-.5-.082-.752a6.679,6.679,0,0,1,1.4-4.6c.1-.134.209-.264.319-.391a.19.19,0,0,0,0-.28c-.129-.138-.273-.262-.4-.4a.117.117,0,0,1,.05-.2c.25-.109.507-.2.758-.31.169-.071.19-.155.073-.275-.205-.21-.415-.417-.623-.625.034-.147.154-.113.25-.114.541,0,1.082,0,1.637,0,.014-.225-.146-.278-.242-.371-.121-.117-.258-.217-.378-.335-.1-.1-.262-.148-.276-.37.265.023.523.047.781.067s.546.034.818.058c1.32.115,2.639.236,3.959.348a17.794,17.794,0,0,1,3.237.489,10.174,10.174,0,0,1,1.6.58c.495.23.99.468,1.5.648a3.345,3.345,0,0,1,1.822,1.568,6.616,6.616,0,0,1,.739,2.069,12.915,12.915,0,0,1,.091,4.085A21.631,21.631,0,0,0,307.323,324.9Z" transform="translate(-34.201)" fill="#2d2d2d"/>
    <path id="Path_4784" data-name="Path 4784" d="M343.078,427.073c-.29.647-.583,1.292-.869,1.94-.169.383-.324.771-.487,1.156a.943.943,0,0,1-.09.165.288.288,0,0,1-.436.075,2.947,2.947,0,0,1-.343-.365c-.355-.437-.7-.878-1.054-1.318-.373-.109-.48-.489-.734-.72a.778.778,0,0,1-.26-.646c.1-.435.506-.594.791-.862q.482-.454.933-.938c.035-.046.072-.089.109-.134s.069-.093.1-.139a1.777,1.777,0,0,0,.485-1.11c.062-.5.075-1,.167-1.5.046-.247.055-.507.306-.657a7.056,7.056,0,0,1,.746,1.141c.322.482.612.986.913,1.482a1.6,1.6,0,0,1,.356,1.037A2.548,2.548,0,0,1,343.078,427.073Z" transform="translate(-72.211 -86.027)" fill="#dfe8f9"/>
    <path id="Path_4785" data-name="Path 4785" d="M302.573,428.717l-1.18,1.459c-.026.033-.05.067-.077.1-.243.281-.478.272-.634-.055-.226-.471-.422-.957-.632-1.436q-.377-.858-.757-1.714a2.31,2.31,0,0,1-.635-1.4,1.046,1.046,0,0,1,.143-.658c.619-1,1.153-2.058,1.871-3,.411.44.316,1.02.421,1.543a6.155,6.155,0,0,0,.056.623,1.558,1.558,0,0,0,.482,1.118c.041.043.078.088.115.134.019.022.037.045.056.067.54.605,1.146,1.146,1.7,1.736a.739.739,0,0,1,.1.145c.009.028.017.056.025.084-.012.257-.217.392-.358.568C303.036,428.256,302.935,428.62,302.573,428.717Z" transform="translate(-40.664 -86.02)" fill="#dfe8f9"/>
    <path id="Path_4786" data-name="Path 4786" d="M473.144,489.658c.458-.253.913-.512,1.374-.758q1.722-.917,3.449-1.825a6.505,6.505,0,0,0,.057,1.059,10.267,10.267,0,0,1,.058,1.249c0,.228-.061.285-.308.291-.355.009-.71.007-1.064,0Q474.927,489.671,473.144,489.658Z" transform="translate(-177.783 -137.148)" fill="#e0b083"/>
    <path id="Path_4787" data-name="Path 4787" d="M348.812,420.6a10.042,10.042,0,0,0-.258,1.815c0,.162.029.332-.1.465a1.967,1.967,0,0,1-.557-1.66,2.5,2.5,0,0,0,.016-.314.61.61,0,0,1,.5-.693C348.513,420.373,348.745,420.4,348.812,420.6Z" transform="translate(-79.323 -84.606)" fill="#c5cddd"/>
    <path id="Path_4788" data-name="Path 4788" d="M308.443,422.9c-.029-.053-.084-.107-.083-.16a12.475,12.475,0,0,0-.277-2.121c.069-.2.3-.224.4-.381l.484.26A2.312,2.312,0,0,1,308.443,422.9Z" transform="translate(-48.074 -84.624)" fill="#c5cddd"/>
    <path id="Path_4789" data-name="Path 4789" d="M296.821,439.087a6.024,6.024,0,0,1,.635,1.4c-.051.078-.142.133-.207.072-.376-.353-.845-.636-.934-1.211Z" transform="translate(-38.828 -99.437)" fill="#dccc97"/>
    <path id="Path_4790" data-name="Path 4790" d="M358.781,440.5a4.836,4.836,0,0,1,.637-1.392l.5.264a2.094,2.094,0,0,1-.876,1.123C358.969,440.55,358.871,440.614,358.781,440.5Z" transform="translate(-87.914 -99.455)" fill="#dccb95"/>
    <path id="Path_4791" data-name="Path 4791" d="M395.352,498.742a.258.258,0,0,1,.255.089l-.248.008A.652.652,0,0,1,395.352,498.742Z" transform="translate(-116.652 -146.312)" fill="#e0b083"/>
    <path id="Path_4792" data-name="Path 4792" d="M402.506,455.928l-.036,0-.036,0a.141.141,0,0,1,.03-.089l.05.031Z" transform="translate(-122.217 -112.602)" fill="#933f37"/>
    <path id="Path_4793" data-name="Path 4793" d="M402.307,386.98a13.494,13.494,0,0,1-2.872-4.7,2.037,2.037,0,0,0-.472-.726,4.6,4.6,0,0,1-1.163-2.271,2.344,2.344,0,0,1-.02-.628,1.145,1.145,0,0,1,.253-.635c.391-.5.8-.5,1.178.006.137.182.251.381.385.587a.866.866,0,0,0,.3-.689c.006-.315,0-.631-.022-.944-.032-.4-.072-.8-.14-1.188a4.031,4.031,0,0,1,.039-1.441A2.737,2.737,0,0,1,401,372.516c.17-.114.259-.1.365.071.176.286.341.58.508.871.126.219.232.45.375.657a2.164,2.164,0,0,0,1.854,1.012c.251,0,.5-.031.755-.047a2.216,2.216,0,0,1,2.137,1.07c.092.141.175.288.276.422a2.2,2.2,0,0,0,1.828.95c.147,0,.295-.013.441,0a2.249,2.249,0,0,1,1.772.942c.1.135.188.275.276.406.148-.016.166-.127.207-.221a2.485,2.485,0,0,1,.5-.8.537.537,0,0,1,.791-.059,1.093,1.093,0,0,1,.467.789,2.39,2.39,0,0,1-.046.94,4.381,4.381,0,0,1-1.11,2.021,1.964,1.964,0,0,0-.491.785,13.286,13.286,0,0,1-2.144,3.9,3.277,3.277,0,0,1-.6.643c-.121.042-.1.17-.152.253l.005-.006A3.956,3.956,0,0,1,402.307,386.98Z" transform="translate(-118.551 -47.067)" fill="#e0b082"/>
    <path id="Path_4794" data-name="Path 4794" d="M418.291,447.042c-.129.31-.251.621-.387.928-.289.652-.575,1.306-.877,1.952a5.349,5.349,0,0,1-5.344,3.037,5.161,5.161,0,0,1-2.965-1.258,5.43,5.43,0,0,1-1.464-1.946c-.4-.9-.806-1.8-1.209-2.7h0a.139.139,0,0,1,.113-.086c.212-.086.425-.17.636-.258a3.213,3.213,0,0,0,1.91-2.1,2.356,2.356,0,0,1,.1-.228c.3-.074.449.176.642.319a8.4,8.4,0,0,0,3.757,1.828,10.365,10.365,0,0,0,3.2-.022.994.994,0,0,1,.731.029Z" transform="translate(-125.054 -103.59)" fill="#e0b082"/>
    <path id="Path_4795" data-name="Path 4795" d="M427.25,443.353a.437.437,0,0,0-.125.007,8.422,8.422,0,0,1-2.664.248,5.665,5.665,0,0,1-2.324-.4,9.692,9.692,0,0,1-1.457-.722,7.439,7.439,0,0,1-1.651-1.23.41.41,0,0,0-.108-.062q0-.441.008-.882a2.046,2.046,0,0,1,.514.459,4.722,4.722,0,0,0,2.16,1.238,2.831,2.831,0,0,0,1.965-.163,6.055,6.055,0,0,0,1.812-1.226,1.488,1.488,0,0,1,.257-.172,8.341,8.341,0,0,0,.162,1.054,2.79,2.79,0,0,0,.833,1.313C426.834,443,427.044,443.175,427.25,443.353Z" transform="translate(-135.173 -100.404)" fill="#c99d76"/>
    <path id="Path_4796" data-name="Path 4796" d="M450.24,440.049c-.016-.124.012-.222.152-.253Z" transform="translate(-159.781 -99.995)" fill="#c99d76"/>
    <path id="Path_4797" data-name="Path 4797" d="M406.159,456.476l-.113.086C406.058,456.5,406.088,456.462,406.159,456.476Z" transform="translate(-125.056 -113.1)" fill="#933f37"/>
    <path id="Path_4798" data-name="Path 4798" d="M373.081,487.015q1.253.656,2.5,1.312c.519.273,1.038.548,1.553.829a1.279,1.279,0,0,1,.517.344c-.858.007-1.716.017-2.574.022-.586,0-1.172.005-1.758,0-.3,0-.353-.067-.358-.382a1.053,1.053,0,0,1,.013-.313A6.589,6.589,0,0,0,373.081,487.015Z" transform="translate(-99.057 -137.1)" fill="#e0b083"/>
    <path id="Path_4799" data-name="Path 4799" d="M316.957,450.148a4.561,4.561,0,0,1,.63-.78,1.019,1.019,0,0,1,.8.005,2.58,2.58,0,0,0,1.186.041.942.942,0,0,1,.3,0,2.639,2.639,0,0,0,1.256-.017c.292-.049.582-.192.88-.023a4.464,4.464,0,0,1,.629.782.6.6,0,0,1-.429.231c-.209.021-.411.112-.61.115a16.9,16.9,0,0,1-2.239.148c-.659-.077-1.316-.167-1.972-.262A.623.623,0,0,1,316.957,450.148Z" transform="translate(-55.048 -107.451)" fill="#dcc991"/>
    <path id="Path_4800" data-name="Path 4800" d="M314.231,427.646l-.258-.011a.648.648,0,0,1-.341-.079c-1.091-.788-2.184-1.574-3.2-2.457l0,0a.738.738,0,0,1-.133-.126,1.181,1.181,0,0,1-.531-1.127c.031-.163-.008-.344.1-.487a2.686,2.686,0,0,0,.429-1.915l.133.132a2.547,2.547,0,0,0,1.242,1.512,11.493,11.493,0,0,0,5.321,1.979,1.33,1.33,0,0,1,.431.079c.267.287-.081.358-.194.461-.763.694-1.655,1.22-2.458,1.863a1,1,0,0,1-.139.1A.666.666,0,0,1,314.231,427.646Z" transform="translate(-49.398 -85.576)" fill="#e0b082"/>
    <path id="Path_4801" data-name="Path 4801" d="M319.855,425.724a8.524,8.524,0,0,1-2.7-.458,14.338,14.338,0,0,1-2.138-.886,15.242,15.242,0,0,1-1.82-1.213,1.057,1.057,0,0,1-.413-1.1,17.146,17.146,0,0,0,2.27,1.331,4.161,4.161,0,0,0,1.378.385,2.428,2.428,0,0,0,.97-.183,9.233,9.233,0,0,0,1.912-.936c.284-.172.559-.356.836-.534.146.178,0,.41.173.548a3.154,3.154,0,0,0,.373,1.065,1.248,1.248,0,0,1,.183.6.6.6,0,0,0-.01.061,1.254,1.254,0,0,1-.52,1.062.42.42,0,0,1-.134.126v0C320.115,425.664,320.024,425.793,319.855,425.724Z" transform="translate(-51.76 -86.06)" fill="#c99d76"/>
    <path id="Path_4802" data-name="Path 4802" d="M335.143,438.624l.368-.145a5.86,5.86,0,0,1-1.242,1.266,2.089,2.089,0,0,0-.517.517c-.417.431-.842.843-1.525.622a4.116,4.116,0,0,1,.968-.785C333.842,439.6,334.494,439.115,335.143,438.624Z" transform="translate(-67.047 -98.96)" fill="#c6cddb"/>
    <path id="Path_4803" data-name="Path 4803" d="M332.227,447.424a.838.838,0,0,0,.531-.122c.33-.169.662-.333.994-.5-.046.259.126.429.254.616-.3.01-.568.19-.875.148-.313.033-.652.227-.9-.139Z" transform="translate(-67.047 -105.5)" fill="#ced7e5"/>
    <path id="Path_4804" data-name="Path 4804" d="M347.555,438.037l.135-.126A.166.166,0,0,1,347.555,438.037Z" transform="translate(-79.092 -98.513)" fill="#c6cddb"/>
    <path id="Path_4805" data-name="Path 4805" d="M312.858,438.5a.873.873,0,0,1,.23.084q1.323.978,2.639,1.966c.147.11.336.172.424.354a1.429,1.429,0,0,1-1.407-.5h0c-.038-.045-.085-.082-.123-.128A12.841,12.841,0,0,1,312.858,438.5Z" transform="translate(-51.827 -98.975)" fill="#c6cddc"/>
    <path id="Path_4806" data-name="Path 4806" d="M320.278,447.4a1.254,1.254,0,0,1,.523.2,2.814,2.814,0,0,0,.884.3.344.344,0,0,1,.25.132,1.422,1.422,0,0,1-1.073.081,9.868,9.868,0,0,1-.962-.224Z" transform="translate(-57.361 -105.97)" fill="#ced5e1"/>
    <path id="Path_4807" data-name="Path 4807" d="M312.246,437.928l.133.126Z" transform="translate(-51.346 -98.527)" fill="#c6cddc"/>
    <path id="Path_4808" data-name="Path 4808" d="M321.091,446.8l.123.128Z" transform="translate(-58.297 -105.501)" fill="#ced5e1"/>
    <path id="Path_4809" data-name="Path 4809" d="M330.954,449.716a.377.377,0,0,0,.336.134c.189,0,.378,0,.568.005a1.444,1.444,0,0,1-1.251,0A.767.767,0,0,1,330.954,449.716Z" transform="translate(-65.774 -107.79)" fill="#c6cddb"/>
  </g>
</svg>
