<svg xmlns="http://www.w3.org/2000/svg" width="37.774" height="27.493" viewBox="0 0 37.774 27.493">
  <g id="Group_3815" data-name="Group 3815" transform="translate(-23.315 -22.743)">
    <rect id="Rectangle_3099" data-name="Rectangle 3099" width="28.137" height="21.133" rx="9.036" transform="translate(24.19 23.618)" fill="#34793a"/>
    <path id="Path_4900" data-name="Path 4900" d="M51.06,45.626h-25.6a2.145,2.145,0,0,1-2.143-2.143v-18.6a2.145,2.145,0,0,1,2.143-2.143h25.6A2.145,2.145,0,0,1,53.2,24.886v18.6A2.145,2.145,0,0,1,51.06,45.626Zm-25.6-21.133a.393.393,0,0,0-.392.392v18.6a.393.393,0,0,0,.392.392h25.6a.392.392,0,0,0,.392-.392v-18.6a.393.393,0,0,0-.392-.392Z" transform="translate(0)" fill="#d9ae69"/>
    <g id="Group_3814" data-name="Group 3814" transform="translate(28.12 28.694)">
      <rect id="Rectangle_3100" data-name="Rectangle 3100" width="13.633" height="0.874" transform="translate(0)" fill="#fff"/>
      <rect id="Rectangle_3101" data-name="Rectangle 3101" width="13.633" height="0.874" transform="translate(0 2.473)" fill="#fff"/>
      <rect id="Rectangle_3102" data-name="Rectangle 3102" width="13.633" height="0.875" transform="translate(0 4.945)" fill="#fff"/>
      <rect id="Rectangle_3103" data-name="Rectangle 3103" width="13.633" height="0.875" transform="translate(0 7.418)" fill="#fff"/>
      <rect id="Rectangle_3104" data-name="Rectangle 3104" width="13.633" height="0.875" transform="translate(0 9.89)" fill="#fff"/>
    </g>
    <path id="Path_4901" data-name="Path 4901" d="M91.433,113.7l1.418,1.325H88.471a1.728,1.728,0,0,1-.289-.242l-.674-.706a1.734,1.734,0,0,1,.053-2.451,1.681,1.681,0,0,1,.779-.423L84.1,103.8a.227.227,0,0,1,.394-.225l4.339,7.569a1.729,1.729,0,0,1,1.185.531l.674.706a1.724,1.724,0,0,1,.406,1.681Z" transform="translate(-52.231 -69.397)" fill="#80807f" opacity="0.55" style="mix-blend-mode: multiply;isolation: isolate"/>
    <path id="Path_4902" data-name="Path 4902" d="M173.788,74.474v.9h1v.041h.269v.3a2.146,2.146,0,0,1-2.145,2.142h-7.863l1.182-1.234a1.852,1.852,0,0,1,1.733-1.205H169.8v-.041h1.01v-.908a4.309,4.309,0,0,1-4.064-4.193.011.011,0,0,0-.006,0v-.006a1.232,1.232,0,0,1-.152.015,1.276,1.276,0,0,1-1.237-1.313v-.321a1.315,1.315,0,0,1,.712-1.184l-.018,0c-1.167-8.485,7.365-7.312,9.013-7.011V74.856a2.238,2.238,0,0,1-.972-.4C173.986,74.468,173.887,74.471,173.788,74.474Z" transform="translate(-121.853 -32.234)" fill="#80807f" opacity="0.55" style="mix-blend-mode: multiply;isolation: isolate"/>
    <path id="Path_4903" data-name="Path 4903" d="M192.6,168.257v-6.486a1.751,1.751,0,0,0-1.751-1.751h-8.2a1.751,1.751,0,0,0-1.751,1.751v6.486Z" transform="translate(-135.482 -118.021)" fill="#536587"/>
    <path id="Path_4904" data-name="Path 4904" d="M178.078,107.082a1.209,1.209,0,0,1-1.171,1.243h0a1.209,1.209,0,0,1-1.171-1.243v-.3a1.209,1.209,0,0,1,1.171-1.243h0a1.209,1.209,0,0,1,1.171,1.243Z" transform="translate(-131.041 -71.18)" fill="#e8b083"/>
    <path id="Path_4905" data-name="Path 4905" d="M253.007,107.082a1.209,1.209,0,0,1-1.171,1.243h0a1.209,1.209,0,0,1-1.172-1.243v-.3a1.209,1.209,0,0,1,1.172-1.243h0a1.209,1.209,0,0,1,1.171,1.243Z" transform="translate(-195.459 -71.18)" fill="#e8b083"/>
    <path id="Path_4906" data-name="Path 4906" d="M232.551,127.792a2.159,2.159,0,1,1-2.159-2.159A2.159,2.159,0,0,1,232.551,127.792Z" transform="translate(-176.174 -88.458)" fill="#f0804c"/>
    <rect id="Rectangle_3105" data-name="Rectangle 3105" width="10.59" height="11.063" rx="5.295" transform="translate(46.009 30.05)" fill="#fbc89a"/>
    <path id="Path_4907" data-name="Path 4907" d="M191.517,64.552s1.08-5.847-2.932-6.691c0,0-10.008-2.3-8.785,6.583,0,0,.76-.271.657,2.655,0,0,1.026-.405.767-3.287,0,0,7.264-.742,8.5-2.314,0,0,.276,4.9,1.317,5.588l0-2.534Z" transform="translate(-134.446 -29.963)" fill="#f0804c"/>
    <path id="Path_4908" data-name="Path 4908" d="M209.527,144.191v-2.536H206.71v2.536h-.956v5.05h4.723v-5.05Z" transform="translate(-156.849 -102.232)" fill="#fbc89a"/>
    <rect id="Rectangle_3106" data-name="Rectangle 3106" width="4.749" height="2.653" transform="translate(48.906 44.355)" fill="#f1e7d5"/>
    <path id="Path_4909" data-name="Path 4909" d="M120.51,151.458a1.641,1.641,0,0,1-.05,2.321h0a1.641,1.641,0,0,1-2.321-.05l-.639-.668a1.642,1.642,0,0,1,.05-2.321h0a1.642,1.642,0,0,1,2.321.05Z" transform="translate(-80.582 -109.651)" fill="#fbc89a"/>
    <path id="Path_4910" data-name="Path 4910" d="M190.584,164" transform="translate(-143.806 -121.443)" fill="none" stroke="#1d1d1b" stroke-width="3.375"/>
    <path id="Path_4911" data-name="Path 4911" d="M137.466,169.122c-.577.18-1.653-.834-1.653-.834l-3.23-3.015,1.991-2.133,2.627,2.453,3.041-3.171,2.106,2.02-3.617,3.771A5.526,5.526,0,0,1,137.466,169.122Z" transform="translate(-93.941 -120.086)" fill="#536587"/>
    <path id="Path_4912" data-name="Path 4912" d="M101.855,106.852a.213.213,0,0,1-.185-.107l-4.545-7.929a.214.214,0,1,1,.37-.213l4.546,7.929a.213.213,0,0,1-.185.32Z" transform="translate(-63.432 -65.127)" fill="#d9ae69"/>
    <path id="Path_4913" data-name="Path 4913" d="M249.2,171.179l-4.569-7.76-2.514,1.481,3.7,6.28Z" transform="translate(-188.112 -120.943)" fill="#536587"/>
  </g>
</svg>
