<?xml version="1.0" encoding="UTF-8"?>
<svg id="Layer_2" data-name="Layer 2" xmlns="http://www.w3.org/2000/svg" viewBox="0 0 184.36 54">
  <defs>
    <style>
      .cls-1, .cls-2 {
        fill: #fff;
      }

      .cls-3 {
        fill: #fabb15;
      }

      .cls-3, .cls-2, .cls-4, .cls-5, .cls-6 {
        fill-rule: evenodd;
      }

      .cls-4, .cls-7 {
        fill: #171717;
      }

      .cls-5 {
        fill: #1f592d;
      }

      .cls-8 {
        fill: #1b1718;
      }

      .cls-6 {
        fill: #f9a51b;
      }
    </style>
  </defs>
  <g id="Layer_1-2" data-name="Layer 1">
    <g>
      <g>
        <path id="Path_1" data-name="Path 1" class="cls-7" d="M76.76,20.68v6.57s3.69,0,3.69,0c.14,0,.28,.02,.41,.06,.12,.04,.23,.1,.32,.18,.08,.07,.15,.17,.2,.27,.04,.1,.07,.21,.07,.33,0,.11-.02,.23-.06,.33-.04,.1-.11,.19-.19,.26-.09,.08-.2,.14-.31,.17-.14,.04-.28,.06-.42,.06h-4.46c-.18,.01-.36,0-.54-.06-.14-.04-.27-.12-.38-.22-.1-.11-.18-.24-.22-.38-.05-.17-.07-.35-.07-.53l-.02-7.02c0-.17,.02-.34,.06-.51,.04-.14,.11-.27,.2-.38,.18-.2,.44-.31,.71-.3,.14,0,.27,.02,.4,.07,.12,.05,.23,.13,.32,.22,.1,.11,.17,.24,.21,.38,.05,.17,.07,.34,.07,.51m10.29,5.32h-3.25c0,.16,.02,.32,.06,.47,.04,.16,.09,.31,.17,.46,.07,.13,.15,.26,.25,.37,.09,.1,.2,.19,.32,.26,.12,.07,.24,.13,.38,.16,.14,.04,.28,.06,.42,.05,.09,0,.19,0,.28-.02,.09,0,.17-.03,.25-.05h0c.08-.02,.16-.05,.24-.09,.08-.04,.16-.08,.23-.13h0c.08-.05,.15-.1,.22-.15s.14-.11,.2-.17l.23-.21c.08-.07,.18-.16,.29-.27h0c.12-.09,.26-.14,.41-.13,.09,0,.18,.01,.26,.04,.08,.02,.15,.06,.21,.12,.06,.05,.11,.12,.14,.2,.03,.08,.05,.17,.05,.25,0,.09-.02,.18-.05,.27-.04,.1-.08,.21-.14,.3h0c-.07,.11-.15,.22-.24,.31-.1,.11-.21,.21-.32,.29-.13,.1-.27,.19-.42,.27-.16,.08-.33,.16-.51,.21-.2,.07-.4,.11-.6,.14-.23,.03-.46,.05-.68,.05-.5,0-1-.07-1.48-.24-.42-.15-.8-.4-1.11-.72-.31-.32-.55-.7-.7-1.12-.16-.47-.24-.96-.24-1.45,0-.25,.02-.49,.06-.74,.04-.23,.09-.46,.17-.68,.07-.21,.17-.41,.28-.61,.11-.19,.24-.36,.39-.52,.15-.16,.31-.3,.49-.42,.18-.12,.38-.23,.59-.31,.22-.09,.44-.15,.67-.19,.24-.04,.49-.06,.74-.06,.61-.02,1.21,.13,1.74,.43h0c.23,.13,.45,.3,.64,.49,.18,.18,.34,.39,.46,.62,.12,.22,.21,.45,.27,.69,.06,.23,.09,.46,.09,.7,0,.19-.03,.38-.1,.56-.06,.14-.17,.26-.3,.34-.15,.07-.3,.12-.46,.15-.2,.04-.4,.05-.6,.05m-3.24-1.1h2.93c-.02-.23-.07-.46-.14-.67-.07-.19-.17-.37-.31-.52h0c-.13-.13-.28-.24-.45-.3-.18-.07-.38-.11-.58-.1-.19,0-.38,.03-.55,.11-.17,.07-.32,.18-.44,.31-.14,.15-.24,.33-.31,.52-.08,.21-.13,.43-.15,.66m10.19,3.19c-.18,.14-.36,.26-.55,.38-.19,.12-.39,.22-.59,.3-.2,.08-.41,.15-.62,.18-.23,.04-.46,.06-.69,.06-.21,0-.42-.02-.63-.07-.19-.04-.38-.11-.55-.2-.16-.08-.32-.19-.45-.31-.26-.24-.45-.55-.55-.88-.05-.17-.07-.34-.07-.52,0-.23,.04-.45,.11-.67,.08-.21,.19-.4,.34-.56,.15-.17,.34-.32,.54-.43,.22-.12,.46-.2,.71-.26,.06-.01,.15-.03,.28-.06l.52-.11c.21-.04,.4-.08,.59-.13s.35-.08,.5-.12c.16-.04,.32-.08,.49-.13,.15-.04,.29-.08,.45-.12,0-.17-.03-.35-.08-.51-.04-.14-.1-.26-.18-.38-.09-.1-.2-.18-.34-.21-.2-.05-.4-.08-.6-.08-.19,0-.37,.01-.55,.05-.26,.04-.49,.16-.67,.35-.09,.09-.18,.19-.24,.3h0c-.07,.12-.14,.21-.19,.29s-.11,.15-.14,.19h0c-.05,.05-.11,.09-.19,.11-.09,.02-.19,.03-.28,.03-.1,0-.2-.02-.29-.05-.09-.03-.17-.08-.25-.15-.08-.06-.14-.14-.18-.23h0c-.04-.09-.06-.19-.06-.29,0-.16,.03-.32,.08-.47,.06-.16,.14-.31,.24-.45h0c.12-.16,.26-.29,.42-.4,.19-.13,.39-.24,.6-.32,.25-.1,.5-.17,.77-.21,.31-.05,.62-.07,.93-.07,.34,0,.67,.02,1.01,.07,.27,.03,.53,.1,.78,.2,.21,.08,.4,.2,.57,.35,.16,.15,.29,.32,.38,.52,.1,.22,.17,.45,.21,.68,.05,.28,.07,.57,.07,.86v1.08c0,.26,0,.55,0,.86,0,.16,.02,.32,.04,.48,.03,.17,.07,.34,.12,.5,.05,.17,.09,.31,.12,.42,.02,.09,.04,.17,.04,.26,0,.1-.02,.19-.07,.28-.05,.09-.12,.18-.2,.24h0c-.08,.07-.18,.13-.28,.17-.1,.04-.21,.06-.32,.06-.1,0-.2-.02-.29-.07-.1-.05-.19-.12-.27-.2-.1-.1-.19-.2-.27-.31-.08-.1-.16-.22-.24-.35m-.16-2.47c-.11,.04-.24,.08-.38,.12-.18,.05-.39,.1-.62,.15l-.57,.13h0c-.17,.04-.31,.07-.41,.1-.09,.02-.17,.06-.25,.1-.09,.05-.17,.1-.24,.16-.07,.06-.13,.14-.17,.23-.04,.1-.06,.2-.06,.31,0,.11,.02,.23,.07,.33,.05,.11,.12,.2,.21,.28,.09,.08,.2,.15,.31,.19,.13,.04,.27,.06,.41,.06,.16,0,.31-.02,.47-.05,.15-.04,.29-.09,.43-.16,.13-.07,.25-.15,.35-.24,.1-.09,.18-.19,.24-.3h0c.08-.15,.14-.32,.16-.49,.04-.25,.06-.5,.05-.75v-.15Zm5.05,.86v1.42c.02,.3-.07,.59-.26,.82-.08,.09-.18,.16-.29,.21-.12,.05-.24,.07-.37,.07-.25,0-.49-.1-.65-.28-.09-.1-.15-.22-.19-.35-.04-.15-.07-.31-.06-.47v-4.73c-.03-.31,.04-.63,.21-.9,.16-.21,.41-.33,.67-.32,.13,0,.27,.02,.39,.07,.11,.05,.2,.12,.27,.22,.07,.11,.13,.23,.16,.35,.02,.09,.04,.17,.05,.26,.07-.1,.13-.2,.2-.29,.1-.12,.21-.24,.32-.34,.12-.1,.25-.17,.4-.21,.16-.05,.33-.07,.5-.07,.18,0,.37,.02,.54,.07,.18,.05,.36,.12,.53,.21,.16,.08,.3,.19,.4,.33,.09,.13,.14,.28,.14,.44,0,.11-.02,.21-.06,.31-.04,.1-.1,.18-.18,.25-.07,.07-.15,.12-.24,.17-.08,.04-.18,.06-.27,.06-.06,0-.12-.01-.18-.03-.07-.02-.17-.05-.29-.09-.11-.03-.22-.06-.33-.08-.09-.02-.19-.03-.28-.03-.11,0-.21,.02-.32,.05-.09,.03-.18,.07-.25,.13-.08,.07-.14,.14-.2,.23-.06,.1-.11,.21-.15,.32-.05,.13-.08,.27-.11,.41-.03,.16-.05,.32-.07,.49-.02,.18-.03,.37-.03,.59s-.01,.44-.01,.7m5.26-3.53h0c.11-.12,.23-.24,.36-.36,.16-.14,.33-.27,.52-.37,.19-.1,.38-.17,.59-.22,.22-.05,.44-.07,.66-.07,.43,0,.85,.09,1.23,.29,.18,.1,.34,.22,.48,.36,.14,.14,.25,.31,.34,.49,.12,.22,.19,.45,.23,.69h0c.02,.12,.03,.26,.04,.42s.01,.32,.01,.51v3.16c.01,.16,0,.31-.05,.47-.04,.13-.1,.25-.19,.35-.08,.09-.18,.16-.29,.21-.12,.05-.24,.07-.37,.07-.13,0-.25-.02-.37-.07-.11-.05-.22-.12-.3-.22-.09-.1-.15-.22-.19-.35-.04-.15-.06-.3-.06-.46v-2.83c0-.24-.02-.49-.06-.73-.03-.18-.09-.36-.17-.53-.07-.13-.18-.24-.32-.3-.17-.07-.36-.11-.55-.1-.14,0-.28,.02-.41,.07-.13,.04-.26,.11-.38,.19-.12,.09-.22,.19-.31,.31-.09,.12-.16,.26-.21,.41-.05,.17-.08,.35-.09,.53-.02,.23-.03,.52-.03,.87v2.13c0,.16-.01,.32-.06,.47-.04,.13-.1,.25-.19,.35-.08,.09-.18,.16-.29,.21-.12,.05-.24,.07-.37,.07-.12,0-.25-.02-.36-.07-.11-.05-.21-.12-.29-.22-.09-.1-.15-.22-.19-.35-.04-.15-.06-.3-.06-.46v-4.91c-.03-.28,.05-.55,.21-.77h0c.07-.09,.17-.15,.27-.2,.11-.05,.23-.07,.35-.07,.08,0,.15,0,.23,.03,.07,.02,.14,.05,.21,.09,.07,.04,.13,.09,.18,.14,.05,.06,.1,.13,.14,.2,.04,.08,.07,.17,.09,.25,.02,.1,.03,.2,.03,.29m7.69,0v4.91c.01,.16,0,.32-.05,.47-.04,.13-.1,.25-.2,.35-.08,.09-.18,.16-.29,.21-.23,.1-.5,.1-.73,0-.11-.05-.21-.12-.29-.22-.09-.1-.15-.22-.19-.35-.04-.15-.06-.3-.06-.46v-4.86c-.01-.16,0-.31,.05-.46,.04-.13,.1-.24,.19-.34,.08-.09,.18-.16,.29-.21,.12-.05,.24-.07,.36-.07,.12,0,.25,.02,.36,.07,.11,.05,.21,.12,.3,.21,.09,.09,.16,.21,.2,.33,.05,.14,.07,.28,.07,.43m-.91-1.68c-.12,0-.24-.02-.35-.06-.11-.04-.21-.1-.3-.18-.09-.08-.16-.18-.21-.29-.05-.12-.07-.25-.07-.38,0-.12,.02-.24,.07-.35,.05-.11,.12-.21,.21-.29,.09-.08,.19-.14,.3-.19,.11-.04,.23-.06,.34-.06,.23,0,.45,.08,.63,.22,.09,.08,.17,.17,.21,.28,.09,.24,.09,.51,0,.75-.04,.11-.11,.21-.2,.29-.09,.08-.18,.14-.29,.18-.11,.04-.23,.06-.34,.06m4.04,1.65h0c.11-.12,.23-.24,.35-.36,.16-.14,.34-.27,.52-.37,.19-.1,.38-.17,.59-.22,.22-.05,.44-.07,.67-.07,.43,0,.86,.1,1.23,.3,.18,.1,.34,.22,.48,.36,.14,.15,.25,.31,.34,.49,.06,.11,.1,.22,.14,.33,.04,.12,.07,.24,.08,.36h0c.02,.12,.03,.26,.04,.42,0,.16,.01,.32,.01,.51v3.16c0,.16-.01,.31-.05,.47-.04,.13-.1,.25-.19,.35-.08,.09-.18,.16-.29,.21-.12,.05-.24,.07-.37,.07-.13,0-.25-.02-.37-.07-.11-.05-.21-.12-.29-.22-.09-.1-.15-.22-.19-.35-.04-.15-.07-.3-.06-.46v-2.83c0-.24-.02-.49-.07-.73-.03-.18-.09-.36-.17-.53-.07-.13-.18-.24-.32-.3-.17-.07-.36-.11-.55-.1-.14,0-.28,.02-.41,.07-.14,.04-.26,.11-.38,.19-.12,.09-.22,.19-.31,.31-.09,.12-.16,.26-.21,.41-.05,.17-.08,.35-.09,.53-.02,.24-.03,.52-.03,.87v2.13c0,.16-.01,.32-.06,.47-.04,.13-.1,.25-.19,.35-.08,.09-.18,.16-.29,.21-.12,.05-.24,.07-.37,.07-.12,0-.25-.02-.36-.07-.11-.05-.21-.12-.29-.22-.09-.1-.15-.22-.19-.35-.04-.15-.06-.3-.06-.46v-4.89c-.03-.28,.05-.55,.22-.77,.08-.09,.17-.15,.27-.2,.11-.04,.23-.07,.35-.07,.08,0,.15,0,.23,.03,.07,.02,.14,.05,.21,.09,.07,.04,.13,.09,.18,.14,.05,.06,.1,.13,.14,.2,.04,.08,.07,.16,.09,.25,.02,.1,.03,.2,.03,.29m12.23,.28v4.93c.01,.27,0,.53-.03,.79-.03,.23-.07,.46-.14,.68-.06,.2-.14,.39-.24,.57-.1,.17-.21,.33-.35,.46-.14,.14-.3,.26-.47,.36-.19,.11-.39,.19-.6,.25-.24,.07-.48,.12-.73,.15-.29,.03-.59,.05-.89,.05-.28,0-.56-.02-.84-.06-.25-.04-.51-.1-.75-.19-.22-.07-.42-.17-.62-.28-.17-.1-.33-.22-.47-.36-.12-.12-.22-.26-.29-.41h0c-.06-.14-.1-.28-.1-.43,0-.21,.08-.41,.23-.56h0c.07-.07,.16-.12,.25-.16,.22-.08,.47-.07,.68,.04,.13,.06,.24,.15,.32,.26h0c.07,.09,.12,.14,.16,.19l.12,.15c.05,.05,.1,.1,.15,.15,.05,.05,.1,.09,.16,.13,.06,.04,.12,.07,.19,.1,.07,.03,.14,.05,.22,.07h0c.09,.02,.17,.04,.26,.04,.09,0,.19,.01,.29,.01,.19,0,.38-.01,.57-.05,.15-.02,.29-.07,.42-.13,.11-.05,.21-.12,.29-.21,.08-.08,.14-.17,.18-.27,.05-.11,.08-.22,.11-.33,.03-.12,.05-.23,.05-.35,0-.13,.02-.29,.02-.5,0-.15,0-.31,.01-.5-.09,.12-.2,.23-.31,.33-.15,.14-.32,.26-.49,.36-.18,.1-.38,.18-.58,.22-.49,.11-1,.1-1.49-.03-.25-.07-.49-.19-.71-.33-.22-.15-.41-.33-.58-.53-.17-.22-.32-.46-.43-.71-.12-.27-.21-.56-.26-.86-.06-.32-.09-.65-.09-.98,0-.25,.01-.49,.05-.74,.03-.23,.09-.45,.16-.67h0c.07-.2,.15-.4,.26-.58,.1-.17,.21-.33,.35-.48,.13-.14,.27-.27,.42-.38,.15-.11,.31-.2,.49-.28,.17-.07,.36-.13,.54-.17,.19-.04,.39-.06,.59-.06,.23,0,.46,.02,.69,.07,.21,.04,.41,.12,.6,.21,.19,.1,.36,.22,.52,.36,.13,.12,.25,.24,.36,.37v-.04c0-.14,.02-.28,.06-.41,.04-.12,.1-.23,.18-.32,.07-.09,.17-.16,.27-.2,.11-.05,.22-.07,.34-.07,.15,0,.3,.03,.44,.09,.12,.06,.22,.15,.28,.27,.06,.13,.11,.27,.13,.41,.03,.18,.04,.36,.04,.54m-4.91,2.16c0,.3,.03,.6,.11,.88,.06,.23,.17,.45,.33,.63,.13,.16,.3,.29,.49,.38,.2,.09,.41,.13,.62,.13,.13,0,.26-.02,.39-.05,.13-.04,.26-.09,.37-.17,.12-.07,.23-.16,.32-.27,.1-.12,.19-.25,.26-.39,.08-.15,.14-.32,.17-.49,.04-.19,.06-.39,.05-.59,0-.3-.03-.61-.11-.9-.07-.24-.18-.47-.33-.67-.13-.17-.31-.32-.5-.41-.2-.09-.42-.14-.65-.14-.22,0-.43,.04-.62,.13-.19,.09-.36,.23-.49,.4-.15,.19-.25,.41-.31,.65-.07,.29-.11,.59-.1,.88m10.06-.16h-1.63s0,2.52,0,2.52c.02,.32-.07,.64-.28,.88-.09,.1-.2,.18-.32,.23-.12,.05-.26,.08-.39,.08-.14,0-.28-.02-.4-.08-.12-.05-.23-.13-.32-.23-.1-.11-.17-.24-.21-.37-.05-.16-.07-.33-.07-.5v-7.03c-.05-.33,.06-.67,.29-.92,.11-.1,.24-.17,.39-.21,.18-.05,.36-.07,.55-.07h2.37c.35,0,.66,0,.93,.03,.24,.02,.47,.06,.7,.12,.19,.05,.37,.12,.54,.21,.17,.09,.32,.19,.46,.32,.14,.12,.26,.26,.37,.41,.11,.15,.2,.32,.27,.49,.07,.18,.13,.37,.16,.57,.04,.21,.06,.42,.06,.63,0,.43-.06,.85-.22,1.25-.14,.36-.37,.67-.66,.92-.32,.26-.69,.45-1.09,.55-.49,.13-1,.19-1.5,.19m-.46-4.18h-1.17s0,2.66,0,2.66h1.18c.2,0,.39-.01,.59-.04,.16-.02,.33-.05,.48-.1,.13-.04,.25-.1,.37-.17,.1-.07,.19-.15,.27-.25,.07-.1,.13-.22,.16-.34,.04-.14,.06-.29,.06-.44,0-.18-.03-.36-.09-.53-.06-.15-.14-.29-.25-.41-.16-.15-.36-.24-.58-.28-.33-.07-.67-.1-1.01-.1m5.08,6.77l-.02-7.36c0-.16,.02-.31,.06-.47,.04-.13,.1-.25,.18-.35,.08-.09,.18-.16,.29-.21,.12-.05,.24-.07,.37-.07,.13,0,.25,.02,.37,.07,.11,.05,.22,.12,.3,.21,.09,.1,.15,.22,.19,.35,.04,.15,.07,.31,.06,.47l.02,7.36c0,.16-.02,.32-.06,.47-.04,.13-.1,.24-.19,.34-.08,.09-.18,.16-.29,.21-.12,.05-.24,.07-.37,.07-.13,0-.25-.02-.36-.07-.11-.05-.21-.12-.29-.22-.09-.1-.15-.22-.19-.35-.04-.15-.07-.3-.06-.46m7.63,.16c-.18,.14-.36,.26-.55,.38-.19,.12-.39,.22-.59,.3-.2,.08-.41,.14-.62,.18-.23,.04-.46,.06-.69,.06-.21,0-.42-.02-.63-.07-.19-.04-.38-.11-.55-.2-.16-.08-.31-.19-.45-.31-.13-.12-.25-.26-.34-.41-.09-.15-.16-.31-.21-.48-.05-.17-.07-.34-.07-.51,0-.23,.04-.45,.11-.67,.08-.21,.2-.4,.34-.56,.15-.17,.34-.32,.54-.43,.22-.12,.46-.2,.71-.26,.06-.01,.15-.03,.28-.06s.3-.06,.52-.11c.2-.04,.4-.08,.59-.13s.35-.08,.5-.12c.16-.04,.32-.08,.49-.12,.15-.04,.29-.08,.45-.12,0-.17-.03-.35-.08-.52-.03-.14-.09-.26-.18-.38-.09-.1-.2-.18-.34-.21-.2-.06-.4-.08-.6-.08-.19,0-.37,.01-.55,.05-.13,.02-.26,.07-.38,.13h0c-.11,.06-.2,.13-.29,.22-.09,.09-.18,.19-.24,.3-.08,.12-.14,.21-.19,.29s-.11,.15-.14,.19h0c-.05,.05-.11,.09-.18,.11-.09,.02-.19,.03-.28,.03-.1,0-.2-.02-.29-.05-.09-.03-.18-.08-.25-.15-.07-.06-.13-.14-.17-.23-.04-.09-.06-.19-.06-.29,0-.16,.03-.32,.08-.47,.06-.16,.14-.31,.24-.45,.12-.16,.26-.29,.42-.4,.19-.13,.38-.24,.59-.32,.25-.1,.5-.17,.77-.21,.31-.05,.62-.07,.93-.07,.34,0,.67,.02,1.01,.06,.27,.04,.53,.1,.78,.2,.21,.08,.4,.2,.57,.35,.16,.15,.28,.32,.37,.52,.1,.22,.17,.45,.21,.68,.05,.28,.07,.57,.07,.86v.55c0,.17,0,.32,0,.46v.07c0,.26,0,.55,0,.86,0,.16,.01,.32,.04,.48,.03,.17,.07,.33,.12,.5,.05,.17,.09,.31,.12,.42,.02,.09,.04,.17,.04,.26,0,.1-.02,.2-.07,.28-.05,.09-.12,.18-.2,.24h0c-.08,.07-.18,.13-.28,.17-.1,.04-.21,.06-.32,.06-.1,0-.2-.02-.29-.07-.1-.05-.19-.12-.27-.2-.1-.1-.19-.2-.27-.31-.08-.1-.16-.22-.24-.35m-.17-2.46c-.11,.04-.24,.08-.38,.12-.18,.05-.39,.1-.62,.15-.22,.05-.41,.09-.57,.13-.17,.04-.31,.07-.41,.1-.09,.02-.17,.06-.25,.1-.09,.05-.17,.1-.24,.17-.07,.06-.13,.14-.17,.23-.04,.1-.06,.2-.06,.31,0,.11,.02,.22,.07,.33,.05,.11,.12,.2,.2,.28,.09,.08,.2,.15,.31,.19,.13,.04,.27,.06,.4,.06,.16,0,.32-.02,.47-.05,.15-.04,.29-.09,.43-.16,.13-.07,.25-.15,.35-.24,.1-.09,.18-.19,.24-.3,.08-.15,.14-.32,.16-.49,.04-.25,.06-.5,.06-.75v-.15Zm3.07-3.51h.12v-.95c0-.13,0-.26,0-.37s0-.2,.02-.28c0-.15,.05-.3,.13-.43,.04-.06,.08-.12,.13-.17,.05-.05,.11-.1,.18-.14,.07-.04,.14-.07,.21-.09,.08-.02,.16-.03,.24-.03,.23,0,.46,.09,.63,.26,.06,.06,.11,.12,.16,.2,.04,.07,.07,.15,.09,.24,.02,.1,.03,.19,.04,.29,0,.11,.01,.24,.01,.38v1.09h.56c.11,0,.23,.01,.34,.05,.1,.03,.18,.08,.26,.14,.06,.06,.12,.13,.15,.2,.11-.26,.4-.39,.87-.39h.34v-.44c0-.24,.01-.48,.05-.72,.03-.2,.08-.39,.16-.57,.07-.16,.16-.3,.28-.43,.13-.12,.27-.22,.43-.29h0c.19-.08,.39-.14,.59-.17,.25-.04,.5-.06,.76-.06,.39-.02,.78,.04,1.14,.19,.25,.1,.41,.34,.41,.6,0,.08-.01,.17-.04,.24-.03,.08-.08,.15-.13,.21-.05,.06-.12,.11-.19,.14-.07,.03-.15,.05-.22,.05-.05,0-.1,0-.14-.01-.06,0-.13-.01-.21-.03s-.15-.02-.22-.03-.12,0-.18,0c-.12,0-.24,.02-.35,.06-.08,.04-.14,.1-.18,.17-.04,.1-.08,.2-.09,.31-.02,.14-.03,.29-.03,.43v.34h.35c.26-.02,.53,.04,.76,.15,.18,.1,.28,.29,.28,.49,0,.13-.02,.25-.07,.37-.04,.1-.13,.18-.23,.22-.1,.04-.21,.07-.32,.09-.14,.02-.27,.03-.41,.03h-.35v4.42c.01,.16,0,.31-.05,.46-.04,.13-.1,.25-.19,.35-.08,.09-.18,.17-.29,.22-.12,.05-.24,.07-.37,.07-.12,0-.24-.02-.35-.07-.11-.05-.21-.12-.29-.21-.09-.1-.16-.22-.2-.35-.05-.15-.07-.31-.06-.46v-4.42h-.41c-.12,0-.24-.01-.35-.04-.1-.02-.19-.07-.28-.13-.07-.06-.13-.13-.17-.22,0,.02-.02,.03-.02,.05-.05,.09-.13,.17-.23,.22-.11,.05-.23,.09-.35,.11-.15,.02-.3,.04-.46,.04h-.25v3.05c0,.13,.01,.25,.01,.35,0,.09,.01,.17,.02,.25,0,.06,.02,.12,.05,.18,.02,.05,.05,.09,.08,.13,.04,.04,.08,.06,.13,.08,.07,.02,.14,.03,.21,.03,.06,0,.11,0,.17-.01,.06,0,.14-.02,.22-.04s.16-.03,.23-.04c.06,0,.12-.01,.18-.01,.08,0,.15,.01,.22,.05,.07,.03,.14,.08,.2,.14,.06,.06,.11,.13,.14,.21,.03,.08,.05,.16,.05,.25,0,.14-.04,.28-.12,.4-.09,.12-.22,.22-.36,.29-.18,.08-.37,.14-.56,.17-.25,.04-.5,.06-.75,.06-.24,0-.48-.02-.71-.07-.19-.04-.37-.11-.53-.21-.14-.09-.26-.2-.36-.34-.1-.13-.17-.28-.21-.44-.05-.18-.08-.37-.1-.56-.02-.24-.03-.48-.03-.72v-3.19h-.16c-.12,0-.23-.01-.35-.05-.1-.03-.19-.08-.26-.14-.07-.06-.12-.14-.16-.22-.04-.09-.06-.18-.05-.27,0-.09,.02-.19,.06-.27,.04-.08,.1-.16,.17-.22h0c.08-.07,.17-.11,.27-.14,.12-.03,.24-.05,.36-.05m14.6,3.34c0,.25-.02,.5-.06,.74-.04,.23-.1,.46-.18,.68-.08,.21-.18,.41-.29,.61-.23,.37-.54,.69-.9,.93-.19,.12-.39,.23-.59,.31-.22,.09-.44,.15-.67,.19-.25,.04-.5,.06-.75,.06-.48,0-.96-.08-1.42-.25-.21-.08-.4-.18-.59-.31-.37-.24-.68-.56-.91-.93-.12-.19-.22-.39-.29-.6-.08-.22-.14-.45-.18-.68-.04-.25-.06-.49-.06-.74,0-.25,.02-.5,.06-.75,.04-.23,.1-.46,.18-.69,.08-.21,.18-.41,.29-.61,.23-.37,.53-.69,.9-.92,.19-.12,.38-.22,.59-.3,.22-.09,.44-.15,.67-.19,.24-.04,.49-.07,.74-.06,.25,0,.5,.02,.75,.06,.23,.04,.46,.1,.68,.19,.21,.08,.41,.19,.6,.31,.18,.12,.35,.26,.51,.42,.31,.32,.55,.7,.7,1.12,.08,.22,.14,.45,.18,.68,.04,.24,.06,.49,.06,.74m-1.84,0c0-.3-.04-.61-.11-.9-.07-.24-.18-.47-.33-.67-.14-.18-.31-.32-.51-.41-.21-.09-.43-.14-.66-.14-.15,0-.3,.02-.45,.06-.14,.04-.27,.1-.39,.18-.12,.08-.23,.19-.32,.31-.1,.13-.18,.28-.24,.43-.07,.17-.12,.35-.15,.53-.03,.2-.05,.41-.05,.62,0,.2,.02,.41,.05,.61,.03,.18,.08,.36,.15,.53,.06,.15,.14,.29,.24,.42,.09,.12,.2,.22,.32,.31,.12,.08,.25,.15,.39,.19,.15,.04,.3,.06,.46,.06,.23,0,.46-.04,.67-.14,.2-.1,.37-.24,.51-.42,.15-.2,.26-.43,.33-.67,.08-.29,.11-.59,.11-.9m4.7,.99v1.42c.03,.3-.07,.59-.26,.82-.08,.09-.18,.16-.29,.21-.12,.05-.24,.07-.37,.07-.25,0-.49-.1-.65-.28-.09-.1-.15-.22-.19-.35-.05-.15-.07-.31-.06-.47v-4.73c-.03-.31,.04-.63,.21-.9,.16-.21,.41-.33,.67-.32,.13,0,.27,.02,.39,.07,.11,.05,.2,.12,.27,.22,.07,.11,.13,.23,.16,.35,.02,.09,.04,.17,.05,.26,.06-.1,.13-.2,.2-.29,.1-.13,.2-.24,.33-.34,.12-.1,.25-.17,.4-.21,.16-.05,.33-.07,.5-.07,.18,0,.37,.02,.54,.07,.18,.05,.36,.12,.53,.21,.16,.08,.3,.19,.4,.33,.09,.13,.14,.28,.14,.44,0,.11-.02,.21-.06,.31-.04,.1-.1,.18-.18,.25-.07,.07-.15,.12-.24,.16-.08,.04-.18,.06-.27,.06-.06,0-.12-.01-.18-.03-.07-.02-.17-.05-.29-.09-.11-.04-.22-.06-.33-.08-.09-.02-.19-.03-.28-.03-.11,0-.21,.02-.32,.05-.09,.03-.18,.07-.25,.13-.08,.07-.14,.14-.2,.23-.06,.1-.11,.21-.15,.32-.04,.14-.08,.27-.11,.41-.03,.15-.05,.31-.07,.49-.01,.18-.03,.37-.03,.59s-.01,.44-.01,.7m9.37-.9v2.26c0,.16-.01,.33-.06,.49-.04,.13-.1,.26-.2,.36-.08,.09-.19,.17-.3,.22-.12,.05-.25,.07-.38,.07-.13,0-.26-.02-.38-.07-.11-.05-.22-.12-.3-.22-.09-.1-.16-.23-.2-.36-.04-.16-.06-.32-.06-.49v-2.7c0-.22-.01-.41-.02-.57s-.02-.3-.03-.42c-.01-.1-.04-.21-.08-.3-.03-.09-.08-.17-.14-.24-.06-.07-.14-.12-.22-.15-.11-.04-.22-.06-.34-.05-.42-.06-.84,.16-1.03,.53-.1,.22-.16,.44-.19,.68-.04,.31-.06,.62-.06,.93v2.3c0,.16-.01,.33-.06,.48-.04,.13-.1,.26-.19,.36-.08,.09-.18,.17-.3,.22-.24,.1-.51,.1-.76,0-.12-.05-.22-.13-.3-.22-.09-.1-.16-.23-.2-.36-.05-.16-.07-.32-.07-.48v-4.86c-.01-.15,0-.3,.05-.44,.03-.12,.09-.24,.18-.33,.08-.09,.17-.16,.28-.2,.11-.05,.23-.07,.35-.07,.12,0,.24,.02,.35,.06,.11,.04,.2,.11,.28,.19h0c.08,.09,.15,.19,.19,.3,.04,.12,.06,.25,.06,.37,.11-.12,.22-.23,.34-.33,.15-.13,.32-.24,.5-.33,.17-.09,.36-.15,.55-.19,.4-.08,.81-.08,1.21,0,.18,.04,.36,.11,.52,.2,.16,.09,.31,.2,.44,.33,.11,.12,.21,.24,.3,.38,.12-.14,.25-.27,.39-.39,.15-.13,.31-.24,.49-.33,.17-.09,.35-.15,.53-.2,.19-.04,.39-.07,.58-.07,.43-.01,.85,.08,1.23,.28,.17,.09,.32,.21,.46,.35,.13,.14,.24,.29,.32,.47,.09,.19,.14,.4,.17,.61,.04,.29,.06,.58,.06,.87v3.31c.03,.31-.06,.61-.25,.85-.08,.09-.19,.17-.3,.22-.12,.05-.25,.07-.38,.07-.13,0-.26-.02-.38-.07-.12-.05-.22-.13-.3-.22-.09-.1-.16-.23-.2-.36-.04-.16-.07-.32-.07-.48v-2.85c0-.18,0-.35-.02-.49,0-.14-.02-.27-.03-.38-.01-.1-.04-.19-.08-.28-.04-.09-.09-.17-.15-.24-.06-.07-.14-.12-.23-.15h0c-.11-.04-.23-.05-.34-.05-.1,0-.21,.02-.31,.05-.1,.03-.2,.08-.29,.14-.09,.06-.18,.14-.25,.22-.07,.09-.14,.18-.19,.28-.07,.18-.12,.38-.13,.57-.03,.3-.05,.61-.05,.92"/>
        <path id="Path_2" data-name="Path 2" class="cls-4" d="M69.62,27.04c.58,0,1.05,.47,1.06,1.05,0,.58-.47,1.05-1.05,1.06-.58,0-1.05-.47-1.06-1.05h0c0-.58,.47-1.05,1.05-1.06"/>
        <path id="Path_3" data-name="Path 3" class="cls-4" d="M55.53,32.1c0-.19,.44-.58,.24-.83-.41-.19-.89-.11-1.21,.2-.39,.39-.48,.88-.31,1.05,.14,.14,.9-.25,.99-.11,.06,.1,.81,3.83,6.52,3.47,6.81-.43,10.35-6.87,10.35-6.87,0,0,.92,.21,1.13,0,.18-.19-.26-.77-.6-1.01-.35-.23-.79-.28-1.18-.15-.3,.15,.25,.96,.25,.96-2.27,3.31-6.01,5.31-10.02,5.34-6.96,.17-6.16-1.86-6.16-2.05"/>
        <path id="Path_4" data-name="Path 4" class="cls-7" d="M44.02,20.7l3.44,5.18v-5.2c-.01-.16,0-.32,.05-.48,.03-.13,.1-.25,.18-.35,.08-.09,.18-.17,.29-.22,.12-.05,.24-.08,.37-.07,.13,0,.26,.02,.38,.07,.11,.05,.22,.12,.29,.21,.09,.1,.15,.22,.19,.35h0c.04,.16,.06,.32,.06,.48l.02,7.16c0,.85-.35,1.27-1.06,1.27-.08,0-.16,0-.25-.02-.08-.01-.15-.03-.22-.06-.07-.03-.14-.06-.2-.1h0c-.07-.04-.13-.09-.19-.14-.06-.05-.12-.11-.17-.17-.06-.06-.11-.13-.16-.2-.05-.07-.1-.14-.15-.21l-.15-.21h0s-3.34-5.1-3.34-5.1v5.11c.03,.3-.06,.6-.25,.84-.08,.09-.19,.17-.3,.22-.24,.1-.51,.1-.75,0-.12-.05-.22-.12-.3-.22-.09-.1-.15-.23-.19-.36-.04-.15-.07-.31-.06-.48l-.02-7.03c0-.14,0-.27,.02-.41,.01-.11,.04-.22,.08-.32h0c.04-.1,.1-.19,.17-.27,.07-.08,.16-.16,.25-.22h0c.09-.06,.2-.11,.3-.14,.11-.03,.21-.05,.32-.05,.08,0,.16,0,.24,.02,.07,.01,.14,.03,.21,.06h0c.06,.03,.12,.06,.18,.1,.06,.04,.11,.08,.15,.13,.05,.05,.1,.11,.14,.16,.05,.06,.09,.13,.14,.2l.02,.03h0c.08,.13,.17,.26,.27,.42m20.06,1.49h.12v-.95c0-.13,0-.26,0-.37s0-.2,.02-.28c.01-.15,.06-.3,.13-.43,.04-.06,.08-.12,.13-.18,.05-.05,.11-.1,.18-.14,.07-.04,.14-.07,.21-.09,.08-.02,.16-.03,.24-.03,.23,0,.46,.09,.63,.26,.06,.06,.11,.12,.16,.2,.04,.07,.07,.15,.09,.24,.02,.1,.03,.19,.04,.29,0,.11,.01,.24,.01,.38v1.09h.55c.11,0,.23,.01,.34,.04,.1,.03,.18,.08,.26,.14,.07,.06,.12,.13,.16,.22,.04,.08,.06,.18,.05,.27,0,.11-.02,.23-.08,.32-.05,.09-.13,.17-.23,.22-.11,.05-.23,.09-.35,.11-.15,.02-.3,.04-.46,.04h-.25v3.05c0,.13,0,.25,.01,.35s.01,.19,.02,.26c0,.06,.02,.12,.05,.18,.02,.05,.05,.09,.08,.13h0s.08,.06,.13,.08c.07,.02,.14,.03,.22,.03,.06,0,.11,0,.17-.01,.06,0,.14-.02,.22-.04h0c.08-.02,.16-.03,.23-.04,.06,0,.12-.01,.18-.01,.08,0,.15,.01,.22,.05,.07,.03,.14,.08,.2,.14,.06,.06,.11,.13,.14,.21,.03,.08,.05,.16,.05,.25,0,.14-.04,.28-.12,.4-.09,.12-.22,.22-.36,.29-.18,.08-.37,.14-.56,.17-.25,.04-.5,.06-.75,.06-.24,0-.48-.02-.71-.07-.19-.04-.37-.11-.53-.21h0c-.14-.09-.26-.2-.36-.34-.1-.13-.17-.28-.21-.44-.05-.18-.08-.37-.1-.56-.02-.24-.03-.48-.03-.72v-3.19h-.16c-.12,0-.23-.01-.34-.05-.1-.03-.19-.08-.26-.15-.07-.06-.13-.14-.16-.22-.04-.09-.05-.18-.05-.27,0-.09,.02-.19,.06-.27,.04-.08,.1-.16,.17-.22h0c.08-.07,.17-.11,.27-.14h0c.12-.03,.23-.05,.35-.05m-3.13,6.16l-1.18-1.72-1.19,1.73h0c-.09,.13-.18,.24-.25,.33-.07,.08-.14,.16-.22,.23-.07,.06-.15,.1-.24,.13-.09,.03-.19,.05-.29,.04-.11,0-.22-.02-.32-.05-.1-.04-.19-.09-.27-.16h0c-.08-.07-.14-.15-.19-.24-.04-.09-.06-.18-.06-.28,0-.12,.04-.24,.09-.35,.07-.16,.16-.31,.27-.45l1.5-2.16-1.34-1.79c-.11-.13-.2-.28-.27-.43-.06-.12-.09-.26-.1-.4,0-.09,.02-.19,.06-.27,.04-.09,.1-.17,.17-.23,.08-.07,.17-.13,.27-.16,.11-.04,.22-.05,.33-.05,.1,0,.2,.01,.29,.04,.09,.03,.17,.08,.24,.14h0c.08,.07,.15,.14,.22,.22,.08,.09,.16,.19,.25,.31l1.05,1.43,1.01-1.43c.09-.13,.17-.24,.25-.32,.07-.08,.14-.16,.22-.22h0c.07-.06,.15-.1,.24-.13,.09-.03,.19-.04,.29-.04,.11,0,.22,.02,.33,.05,.1,.03,.19,.09,.27,.15h0c.08,.06,.14,.14,.18,.23,.04,.09,.06,.18,.06,.28,0,.14-.03,.28-.1,.4h0c-.04,.07-.07,.14-.12,.2-.05,.07-.1,.15-.16,.23l-1.33,1.8,1.51,2.16c.1,.15,.2,.3,.28,.46,.06,.11,.09,.23,.1,.35,0,.2-.09,.39-.25,.51-.08,.07-.17,.12-.27,.16-.1,.04-.21,.06-.32,.05-.1,0-.2-.01-.29-.05-.09-.03-.17-.08-.25-.14h0c-.08-.07-.16-.15-.23-.23-.08-.09-.16-.2-.25-.32h-.01Zm-5.89-2.29h-3.25c0,.16,.02,.32,.06,.47,.04,.16,.09,.31,.17,.46,.07,.13,.15,.26,.25,.37,.09,.1,.2,.19,.32,.26h0c.12,.07,.24,.12,.38,.16h0c.14,.04,.28,.05,.42,.05,.09,0,.19,0,.28-.02,.09-.01,.17-.03,.25-.05h0c.08-.02,.16-.05,.24-.09,.08-.04,.16-.08,.23-.13h0c.08-.05,.15-.1,.22-.15s.14-.11,.2-.17,.14-.13,.23-.21h0c.08-.08,.18-.16,.28-.27h0c.12-.09,.26-.14,.41-.13,.09,0,.18,.01,.26,.04,.08,.02,.15,.06,.21,.12,.06,.05,.11,.12,.14,.2,.03,.08,.05,.17,.05,.26,0,.09-.02,.18-.05,.27-.04,.1-.08,.21-.14,.3h0c-.07,.11-.15,.22-.24,.31-.1,.11-.21,.21-.32,.29-.13,.1-.27,.19-.42,.27-.16,.08-.33,.16-.51,.21-.2,.07-.4,.11-.6,.14-.23,.03-.46,.05-.68,.05-.5,0-1-.07-1.47-.24-.42-.15-.8-.4-1.12-.72-.31-.32-.55-.7-.7-1.12-.16-.47-.24-.96-.23-1.45,0-.25,.02-.49,.06-.74,.04-.23,.09-.46,.17-.68,.07-.21,.17-.41,.28-.61,.11-.19,.24-.36,.39-.52h0c.15-.16,.31-.3,.49-.42,.18-.12,.38-.23,.59-.31,.22-.09,.44-.15,.68-.19,.24-.04,.49-.06,.74-.07,.61-.02,1.21,.13,1.74,.43h0c.23,.13,.45,.3,.64,.49,.18,.18,.33,.39,.46,.62,.12,.22,.21,.45,.27,.69,.06,.23,.09,.46,.09,.7,0,.19-.03,.38-.1,.56-.06,.14-.17,.26-.3,.34-.15,.07-.3,.12-.46,.15-.2,.03-.4,.05-.6,.05m-3.25-1.1h2.93c-.02-.23-.06-.46-.14-.67-.07-.19-.17-.37-.31-.52h0c-.13-.13-.28-.24-.45-.3-.18-.07-.38-.11-.57-.1-.19,0-.38,.03-.55,.11-.17,.07-.32,.18-.44,.31-.14,.15-.24,.33-.31,.52-.08,.21-.13,.43-.15,.66"/>
        <path id="Path_5" data-name="Path 5" class="cls-8" d="M182.47,18.1c.5,0,.98,.2,1.34,.55,.36,.35,.55,.84,.55,1.34,0,1.04-.86,1.88-1.9,1.88s-1.88-.86-1.88-1.9c0-.32,.09-.64,.25-.92,.16-.29,.4-.52,.69-.69,.29-.17,.62-.26,.95-.25m0,.37c-.27,0-.53,.07-.76,.2-.23,.13-.42,.32-.56,.55-.43,.73-.18,1.66,.55,2.09s1.66,.18,2.09-.55,.18-1.66-.55-2.09c-.23-.14-.5-.21-.77-.21m-.45,2.53h-.41v-2.01h.95c.13,0,.26,.02,.37,.07,.09,.04,.17,.11,.23,.2,.05,.09,.08,.19,.08,.3,0,.14-.05,.27-.14,.37-.11,.11-.25,.18-.4,.19,.08,.03,.16,.08,.21,.15,.08,.1,.15,.21,.21,.33l.24,.41h-.51l-.17-.32c-.06-.11-.12-.22-.2-.32-.04-.06-.1-.11-.16-.14-.06-.03-.13-.04-.2-.04h-.11v.82Zm0-1.69v.54h.33c.12,0,.23-.01,.34-.06,.08-.05,.13-.14,.12-.23,0-.08-.04-.15-.1-.19-.1-.05-.2-.08-.31-.07h-.37Z"/>
        <path id="Path_6" data-name="Path 6" class="cls-7" d="M76.76,20.68v6.57s3.69,0,3.69,0c.14,0,.28,.02,.41,.06,.12,.04,.23,.1,.32,.18,.08,.07,.15,.17,.2,.27,.04,.1,.07,.21,.07,.33,0,.11-.02,.23-.06,.33-.04,.1-.11,.19-.19,.26-.09,.08-.2,.14-.31,.17-.14,.04-.28,.06-.42,.06h-4.46c-.18,.01-.36,0-.54-.06-.14-.04-.27-.12-.38-.22-.1-.11-.18-.24-.22-.38-.05-.17-.07-.35-.07-.53l-.02-7.02c0-.17,.02-.34,.06-.51,.04-.14,.11-.27,.2-.38,.18-.2,.44-.31,.71-.3,.14,0,.27,.02,.4,.07,.12,.05,.23,.13,.32,.22,.1,.11,.17,.24,.21,.38,.05,.17,.07,.34,.07,.51m10.29,5.32h-3.25c0,.16,.02,.32,.06,.47,.04,.16,.09,.31,.17,.46,.07,.13,.15,.26,.25,.37,.09,.1,.2,.19,.32,.26,.12,.07,.24,.13,.38,.16,.14,.04,.28,.06,.42,.05,.09,0,.19,0,.28-.02,.09,0,.17-.03,.25-.05h0c.08-.02,.16-.05,.24-.09,.08-.04,.16-.08,.23-.13h0c.08-.05,.15-.1,.22-.15s.14-.11,.2-.17l.23-.21c.08-.07,.18-.16,.29-.27h0c.12-.09,.26-.14,.41-.13,.09,0,.18,.01,.26,.04,.08,.02,.15,.06,.21,.12,.06,.05,.11,.12,.14,.2,.03,.08,.05,.17,.05,.25,0,.09-.02,.18-.05,.27-.04,.1-.08,.21-.14,.3h0c-.07,.11-.15,.22-.24,.31-.1,.11-.21,.21-.32,.29-.13,.1-.27,.19-.42,.27-.16,.08-.33,.16-.51,.21-.2,.07-.4,.11-.6,.14-.23,.03-.46,.05-.68,.05-.5,0-1-.07-1.48-.24-.42-.15-.8-.4-1.11-.72-.31-.32-.55-.7-.7-1.12-.16-.47-.24-.96-.24-1.45,0-.25,.02-.49,.06-.74,.04-.23,.09-.46,.17-.68,.07-.21,.17-.41,.28-.61,.11-.19,.24-.36,.39-.52,.15-.16,.31-.3,.49-.42,.18-.12,.38-.23,.59-.31,.22-.09,.44-.15,.67-.19,.24-.04,.49-.06,.74-.06,.61-.02,1.21,.13,1.74,.43h0c.23,.13,.45,.3,.64,.49,.18,.18,.34,.39,.46,.62,.12,.22,.21,.45,.27,.69,.06,.23,.09,.46,.09,.7,0,.19-.03,.38-.1,.56-.06,.14-.17,.26-.3,.34-.15,.07-.3,.12-.46,.15-.2,.04-.4,.05-.6,.05m-3.24-1.1h2.93c-.02-.23-.07-.46-.14-.67-.07-.19-.17-.37-.31-.52h0c-.13-.13-.28-.24-.45-.3-.18-.07-.38-.11-.58-.1-.19,0-.38,.03-.55,.11-.17,.07-.32,.18-.44,.31-.14,.15-.24,.33-.31,.52-.08,.21-.13,.43-.15,.66m10.19,3.19c-.18,.14-.36,.26-.55,.38-.19,.12-.39,.22-.59,.3-.2,.08-.41,.15-.62,.18-.23,.04-.46,.06-.69,.06-.21,0-.42-.02-.63-.07-.19-.04-.38-.11-.55-.2-.16-.08-.32-.19-.45-.31-.26-.24-.45-.55-.55-.88-.05-.17-.07-.34-.07-.52,0-.23,.04-.45,.11-.67,.08-.21,.19-.4,.34-.56,.15-.17,.34-.32,.54-.43,.22-.12,.46-.2,.71-.26,.06-.01,.15-.03,.28-.06l.52-.11c.21-.04,.4-.08,.59-.13s.35-.08,.5-.12c.16-.04,.32-.08,.49-.13,.15-.04,.29-.08,.45-.12,0-.17-.03-.35-.08-.51-.04-.14-.1-.26-.18-.38-.09-.1-.2-.18-.34-.21-.2-.05-.4-.08-.6-.08-.19,0-.37,.01-.55,.05-.26,.04-.49,.16-.67,.35-.09,.09-.18,.19-.24,.3h0c-.07,.12-.14,.21-.19,.29s-.11,.15-.14,.19h0c-.05,.05-.11,.09-.19,.11-.09,.02-.19,.03-.28,.03-.1,0-.2-.02-.29-.05-.09-.03-.17-.08-.25-.15-.08-.06-.14-.14-.18-.23h0c-.04-.09-.06-.19-.06-.29,0-.16,.03-.32,.08-.47,.06-.16,.14-.31,.24-.45h0c.12-.16,.26-.29,.42-.4,.19-.13,.39-.24,.6-.32,.25-.1,.5-.17,.77-.21,.31-.05,.62-.07,.93-.07,.34,0,.67,.02,1.01,.07,.27,.03,.53,.1,.78,.2,.21,.08,.4,.2,.57,.35,.16,.15,.29,.32,.38,.52,.1,.22,.17,.45,.21,.68,.05,.28,.07,.57,.07,.86v1.08c0,.26,0,.55,0,.86,0,.16,.02,.32,.04,.48,.03,.17,.07,.34,.12,.5,.05,.17,.09,.31,.12,.42,.02,.09,.04,.17,.04,.26,0,.1-.02,.19-.07,.28-.05,.09-.12,.18-.2,.24h0c-.08,.07-.18,.13-.28,.17-.1,.04-.21,.06-.32,.06-.1,0-.2-.02-.29-.07-.1-.05-.19-.12-.27-.2-.1-.1-.19-.2-.27-.31-.08-.1-.16-.22-.24-.35m-.16-2.47c-.11,.04-.24,.08-.38,.12-.18,.05-.39,.1-.62,.15l-.57,.13h0c-.17,.04-.31,.07-.41,.1-.09,.02-.17,.06-.25,.1-.09,.05-.17,.1-.24,.16-.07,.06-.13,.14-.17,.23-.04,.1-.06,.2-.06,.31,0,.11,.02,.23,.07,.33,.05,.11,.12,.2,.21,.28,.09,.08,.2,.15,.31,.19,.13,.04,.27,.06,.41,.06,.16,0,.31-.02,.47-.05,.15-.04,.29-.09,.43-.16,.13-.07,.25-.15,.35-.24,.1-.09,.18-.19,.24-.3h0c.08-.15,.14-.32,.16-.49,.04-.25,.06-.5,.05-.75v-.15Zm5.05,.86v1.42c.02,.3-.07,.59-.26,.82-.08,.09-.18,.16-.29,.21-.12,.05-.24,.07-.37,.07-.25,0-.49-.1-.65-.28-.09-.1-.15-.22-.19-.35-.04-.15-.07-.31-.06-.47v-4.73c-.03-.31,.04-.63,.21-.9,.16-.21,.41-.33,.67-.32,.13,0,.27,.02,.39,.07,.11,.05,.2,.12,.27,.22,.07,.11,.13,.23,.16,.35,.02,.09,.04,.17,.05,.26,.07-.1,.13-.2,.2-.29,.1-.12,.21-.24,.32-.34,.12-.1,.25-.17,.4-.21,.16-.05,.33-.07,.5-.07,.18,0,.37,.02,.54,.07,.18,.05,.36,.12,.53,.21,.16,.08,.3,.19,.4,.33,.09,.13,.14,.28,.14,.44,0,.11-.02,.21-.06,.31-.04,.1-.1,.18-.18,.25-.07,.07-.15,.12-.24,.17-.08,.04-.18,.06-.27,.06-.06,0-.12-.01-.18-.03-.07-.02-.17-.05-.29-.09-.11-.03-.22-.06-.33-.08-.09-.02-.19-.03-.28-.03-.11,0-.21,.02-.32,.05-.09,.03-.18,.07-.25,.13-.08,.07-.14,.14-.2,.23-.06,.1-.11,.21-.15,.32-.05,.13-.08,.27-.11,.41-.03,.16-.05,.32-.07,.49-.02,.18-.03,.37-.03,.59s-.01,.44-.01,.7m5.26-3.53h0c.11-.12,.23-.24,.36-.36,.16-.14,.33-.27,.52-.37,.19-.1,.38-.17,.59-.22,.22-.05,.44-.07,.66-.07,.43,0,.85,.09,1.23,.29,.18,.1,.34,.22,.48,.36,.14,.14,.25,.31,.34,.49,.12,.22,.19,.45,.23,.69h0c.02,.12,.03,.26,.04,.42s.01,.32,.01,.51v3.16c.01,.16,0,.31-.05,.47-.04,.13-.1,.25-.19,.35-.08,.09-.18,.16-.29,.21-.12,.05-.24,.07-.37,.07-.13,0-.25-.02-.37-.07-.11-.05-.22-.12-.3-.22-.09-.1-.15-.22-.19-.35-.04-.15-.06-.3-.06-.46v-2.83c0-.24-.02-.49-.06-.73-.03-.18-.09-.36-.17-.53-.07-.13-.18-.24-.32-.3-.17-.07-.36-.11-.55-.1-.14,0-.28,.02-.41,.07-.13,.04-.26,.11-.38,.19-.12,.09-.22,.19-.31,.31-.09,.12-.16,.26-.21,.41-.05,.17-.08,.35-.09,.53-.02,.23-.03,.52-.03,.87v2.13c0,.16-.01,.32-.06,.47-.04,.13-.1,.25-.19,.35-.08,.09-.18,.16-.29,.21-.12,.05-.24,.07-.37,.07-.12,0-.25-.02-.36-.07-.11-.05-.21-.12-.29-.22-.09-.1-.15-.22-.19-.35-.04-.15-.06-.3-.06-.46v-4.91c-.03-.28,.05-.55,.21-.77h0c.07-.09,.17-.15,.27-.2,.11-.05,.23-.07,.35-.07,.08,0,.15,0,.23,.03,.07,.02,.14,.05,.21,.09,.07,.04,.13,.09,.18,.14,.05,.06,.1,.13,.14,.2,.04,.08,.07,.17,.09,.25,.02,.1,.03,.2,.03,.29m7.69,0v4.91c.01,.16,0,.32-.05,.47-.04,.13-.1,.25-.2,.35-.08,.09-.18,.16-.29,.21-.23,.1-.5,.1-.73,0-.11-.05-.21-.12-.29-.22-.09-.1-.15-.22-.19-.35-.04-.15-.06-.3-.06-.46v-4.86c-.01-.16,0-.31,.05-.46,.04-.13,.1-.24,.19-.34,.08-.09,.18-.16,.29-.21,.12-.05,.24-.07,.36-.07,.12,0,.25,.02,.36,.07,.11,.05,.21,.12,.3,.21,.09,.09,.16,.21,.2,.33,.05,.14,.07,.28,.07,.43m-.91-1.68c-.12,0-.24-.02-.35-.06-.11-.04-.21-.1-.3-.18-.09-.08-.16-.18-.21-.29-.05-.12-.07-.25-.07-.38,0-.12,.02-.24,.07-.35,.05-.11,.12-.21,.21-.29,.09-.08,.19-.14,.3-.19,.11-.04,.23-.06,.34-.06,.23,0,.45,.08,.63,.22,.09,.08,.17,.17,.21,.28,.09,.24,.09,.51,0,.75-.04,.11-.11,.21-.2,.29-.09,.08-.18,.14-.29,.18-.11,.04-.23,.06-.34,.06m4.04,1.65h0c.11-.12,.23-.24,.35-.36,.16-.14,.34-.27,.52-.37,.19-.1,.38-.17,.59-.22,.22-.05,.44-.07,.67-.07,.43,0,.86,.1,1.23,.3,.18,.1,.34,.22,.48,.36,.14,.15,.25,.31,.34,.49,.06,.11,.1,.22,.14,.33,.04,.12,.07,.24,.08,.36h0c.02,.12,.03,.26,.04,.42,0,.16,.01,.32,.01,.51v3.16c0,.16-.01,.31-.05,.47-.04,.13-.1,.25-.19,.35-.08,.09-.18,.16-.29,.21-.12,.05-.24,.07-.37,.07-.13,0-.25-.02-.37-.07-.11-.05-.21-.12-.29-.22-.09-.1-.15-.22-.19-.35-.04-.15-.07-.3-.06-.46v-2.83c0-.24-.02-.49-.07-.73-.03-.18-.09-.36-.17-.53-.07-.13-.18-.24-.32-.3-.17-.07-.36-.11-.55-.1-.14,0-.28,.02-.41,.07-.14,.04-.26,.11-.38,.19-.12,.09-.22,.19-.31,.31-.09,.12-.16,.26-.21,.41-.05,.17-.08,.35-.09,.53-.02,.24-.03,.52-.03,.87v2.13c0,.16-.01,.32-.06,.47-.04,.13-.1,.25-.19,.35-.08,.09-.18,.16-.29,.21-.12,.05-.24,.07-.37,.07-.12,0-.25-.02-.36-.07-.11-.05-.21-.12-.29-.22-.09-.1-.15-.22-.19-.35-.04-.15-.06-.3-.06-.46v-4.89c-.03-.28,.05-.55,.22-.77,.08-.09,.17-.15,.27-.2,.11-.04,.23-.07,.35-.07,.08,0,.15,0,.23,.03,.07,.02,.14,.05,.21,.09,.07,.04,.13,.09,.18,.14,.05,.06,.1,.13,.14,.2,.04,.08,.07,.16,.09,.25,.02,.1,.03,.2,.03,.29m12.23,.28v4.93c.01,.27,0,.53-.03,.79-.03,.23-.07,.46-.14,.68-.06,.2-.14,.39-.24,.57-.1,.17-.21,.33-.35,.46-.14,.14-.3,.26-.47,.36-.19,.11-.39,.19-.6,.25-.24,.07-.48,.12-.73,.15-.29,.03-.59,.05-.89,.05-.28,0-.56-.02-.84-.06-.25-.04-.51-.1-.75-.19-.22-.07-.42-.17-.62-.28-.17-.1-.33-.22-.47-.36-.12-.12-.22-.26-.29-.41h0c-.06-.14-.1-.28-.1-.43,0-.21,.08-.41,.23-.56h0c.07-.07,.16-.12,.25-.16,.22-.08,.47-.07,.68,.04,.13,.06,.24,.15,.32,.26h0c.07,.09,.12,.14,.16,.19l.12,.15c.05,.05,.1,.1,.15,.15,.05,.05,.1,.09,.16,.13,.06,.04,.12,.07,.19,.1,.07,.03,.14,.05,.22,.07h0c.09,.02,.17,.04,.26,.04,.09,0,.19,.01,.29,.01,.19,0,.38-.01,.57-.05,.15-.02,.29-.07,.42-.13,.11-.05,.21-.12,.29-.21,.08-.08,.14-.17,.18-.27,.05-.11,.08-.22,.11-.33,.03-.12,.05-.23,.05-.35,0-.13,.02-.29,.02-.5,0-.15,0-.31,.01-.5-.09,.12-.2,.23-.31,.33-.15,.14-.32,.26-.49,.36-.18,.1-.38,.18-.58,.22-.49,.11-1,.1-1.49-.03-.25-.07-.49-.19-.71-.33-.22-.15-.41-.33-.58-.53-.17-.22-.32-.46-.43-.71-.12-.27-.21-.56-.26-.86-.06-.32-.09-.65-.09-.98,0-.25,.01-.49,.05-.74,.03-.23,.09-.45,.16-.67h0c.07-.2,.15-.4,.26-.58,.1-.17,.21-.33,.35-.48,.13-.14,.27-.27,.42-.38,.15-.11,.31-.2,.49-.28,.17-.07,.36-.13,.54-.17,.19-.04,.39-.06,.59-.06,.23,0,.46,.02,.69,.07,.21,.04,.41,.12,.6,.21,.19,.1,.36,.22,.52,.36,.13,.12,.25,.24,.36,.37v-.04c0-.14,.02-.28,.06-.41,.04-.12,.1-.23,.18-.32,.07-.09,.17-.16,.27-.2,.11-.05,.22-.07,.34-.07,.15,0,.3,.03,.44,.09,.12,.06,.22,.15,.28,.27,.06,.13,.11,.27,.13,.41,.03,.18,.04,.36,.04,.54m-4.91,2.16c0,.3,.03,.6,.11,.88,.06,.23,.17,.45,.33,.63,.13,.16,.3,.29,.49,.38,.2,.09,.41,.13,.62,.13,.13,0,.26-.02,.39-.05,.13-.04,.26-.09,.37-.17,.12-.07,.23-.16,.32-.27,.1-.12,.19-.25,.26-.39,.08-.15,.14-.32,.17-.49,.04-.19,.06-.39,.05-.59,0-.3-.03-.61-.11-.9-.07-.24-.18-.47-.33-.67-.13-.17-.31-.32-.5-.41-.2-.09-.42-.14-.65-.14-.22,0-.43,.04-.62,.13-.19,.09-.36,.23-.49,.4-.15,.19-.25,.41-.31,.65-.07,.29-.11,.59-.1,.88m10.06-.16h-1.63s0,2.52,0,2.52c.02,.32-.07,.64-.28,.88-.09,.1-.2,.18-.32,.23-.12,.05-.26,.08-.39,.08-.14,0-.28-.02-.4-.08-.12-.05-.23-.13-.32-.23-.1-.11-.17-.24-.21-.37-.05-.16-.07-.33-.07-.5v-7.03c-.05-.33,.06-.67,.29-.92,.11-.1,.24-.17,.39-.21,.18-.05,.36-.07,.55-.07h2.37c.35,0,.66,0,.93,.03,.24,.02,.47,.06,.7,.12,.19,.05,.37,.12,.54,.21,.17,.09,.32,.19,.46,.32,.14,.12,.26,.26,.37,.41,.11,.15,.2,.32,.27,.49,.07,.18,.13,.37,.16,.57,.04,.21,.06,.42,.06,.63,0,.43-.06,.85-.22,1.25-.14,.36-.37,.67-.66,.92-.32,.26-.69,.45-1.09,.55-.49,.13-1,.19-1.5,.19m-.46-4.18h-1.17s0,2.66,0,2.66h1.18c.2,0,.39-.01,.59-.04,.16-.02,.33-.05,.48-.1,.13-.04,.25-.1,.37-.17,.1-.07,.19-.15,.27-.25,.07-.1,.13-.22,.16-.34,.04-.14,.06-.29,.06-.44,0-.18-.03-.36-.09-.53-.06-.15-.14-.29-.25-.41-.16-.15-.36-.24-.58-.28-.33-.07-.67-.1-1.01-.1m5.08,6.77l-.02-7.36c0-.16,.02-.31,.06-.47,.04-.13,.1-.25,.18-.35,.08-.09,.18-.16,.29-.21,.12-.05,.24-.07,.37-.07,.13,0,.25,.02,.37,.07,.11,.05,.22,.12,.3,.21,.09,.1,.15,.22,.19,.35,.04,.15,.07,.31,.06,.47l.02,7.36c0,.16-.02,.32-.06,.47-.04,.13-.1,.24-.19,.34-.08,.09-.18,.16-.29,.21-.12,.05-.24,.07-.37,.07-.13,0-.25-.02-.36-.07-.11-.05-.21-.12-.29-.22-.09-.1-.15-.22-.19-.35-.04-.15-.07-.3-.06-.46m7.63,.16c-.18,.14-.36,.26-.55,.38-.19,.12-.39,.22-.59,.3-.2,.08-.41,.14-.62,.18-.23,.04-.46,.06-.69,.06-.21,0-.42-.02-.63-.07-.19-.04-.38-.11-.55-.2-.16-.08-.31-.19-.45-.31-.13-.12-.25-.26-.34-.41-.09-.15-.16-.31-.21-.48-.05-.17-.07-.34-.07-.51,0-.23,.04-.45,.11-.67,.08-.21,.2-.4,.34-.56,.15-.17,.34-.32,.54-.43,.22-.12,.46-.2,.71-.26,.06-.01,.15-.03,.28-.06s.3-.06,.52-.11c.2-.04,.4-.08,.59-.13s.35-.08,.5-.12c.16-.04,.32-.08,.49-.12,.15-.04,.29-.08,.45-.12,0-.17-.03-.35-.08-.52-.03-.14-.09-.26-.18-.38-.09-.1-.2-.18-.34-.21-.2-.06-.4-.08-.6-.08-.19,0-.37,.01-.55,.05-.13,.02-.26,.07-.38,.13h0c-.11,.06-.2,.13-.29,.22-.09,.09-.18,.19-.24,.3-.08,.12-.14,.21-.19,.29s-.11,.15-.14,.19h0c-.05,.05-.11,.09-.18,.11-.09,.02-.19,.03-.28,.03-.1,0-.2-.02-.29-.05-.09-.03-.18-.08-.25-.15-.07-.06-.13-.14-.17-.23-.04-.09-.06-.19-.06-.29,0-.16,.03-.32,.08-.47,.06-.16,.14-.31,.24-.45,.12-.16,.26-.29,.42-.4,.19-.13,.38-.24,.59-.32,.25-.1,.5-.17,.77-.21,.31-.05,.62-.07,.93-.07,.34,0,.67,.02,1.01,.06,.27,.04,.53,.1,.78,.2,.21,.08,.4,.2,.57,.35,.16,.15,.28,.32,.37,.52,.1,.22,.17,.45,.21,.68,.05,.28,.07,.57,.07,.86v.55c0,.17,0,.32,0,.46v.07c0,.26,0,.55,0,.86,0,.16,.01,.32,.04,.48,.03,.17,.07,.33,.12,.5,.05,.17,.09,.31,.12,.42,.02,.09,.04,.17,.04,.26,0,.1-.02,.2-.07,.28-.05,.09-.12,.18-.2,.24h0c-.08,.07-.18,.13-.28,.17-.1,.04-.21,.06-.32,.06-.1,0-.2-.02-.29-.07-.1-.05-.19-.12-.27-.2-.1-.1-.19-.2-.27-.31-.08-.1-.16-.22-.24-.35m-.17-2.46c-.11,.04-.24,.08-.38,.12-.18,.05-.39,.1-.62,.15-.22,.05-.41,.09-.57,.13-.17,.04-.31,.07-.41,.1-.09,.02-.17,.06-.25,.1-.09,.05-.17,.1-.24,.17-.07,.06-.13,.14-.17,.23-.04,.1-.06,.2-.06,.31,0,.11,.02,.22,.07,.33,.05,.11,.12,.2,.2,.28,.09,.08,.2,.15,.31,.19,.13,.04,.27,.06,.4,.06,.16,0,.32-.02,.47-.05,.15-.04,.29-.09,.43-.16,.13-.07,.25-.15,.35-.24,.1-.09,.18-.19,.24-.3,.08-.15,.14-.32,.16-.49,.04-.25,.06-.5,.06-.75v-.15Zm3.07-3.51h.12v-.95c0-.13,0-.26,0-.37s0-.2,.02-.28c0-.15,.05-.3,.13-.43,.04-.06,.08-.12,.13-.17,.05-.05,.11-.1,.18-.14,.07-.04,.14-.07,.21-.09,.08-.02,.16-.03,.24-.03,.23,0,.46,.09,.63,.26,.06,.06,.11,.12,.16,.2,.04,.07,.07,.15,.09,.24,.02,.1,.03,.19,.04,.29,0,.11,.01,.24,.01,.38v1.09h.56c.11,0,.23,.01,.34,.05,.1,.03,.18,.08,.26,.14,.06,.06,.12,.13,.15,.2,.11-.26,.4-.39,.87-.39h.34v-.44c0-.24,.01-.48,.05-.72,.03-.2,.08-.39,.16-.57,.07-.16,.16-.3,.28-.43,.13-.12,.27-.22,.43-.29h0c.19-.08,.39-.14,.59-.17,.25-.04,.5-.06,.76-.06,.39-.02,.78,.04,1.14,.19,.25,.1,.41,.34,.41,.6,0,.08-.01,.17-.04,.24-.03,.08-.08,.15-.13,.21-.05,.06-.12,.11-.19,.14-.07,.03-.15,.05-.22,.05-.05,0-.1,0-.14-.01-.06,0-.13-.01-.21-.03s-.15-.02-.22-.03-.12,0-.18,0c-.12,0-.24,.02-.35,.06-.08,.04-.14,.1-.18,.17-.04,.1-.08,.2-.09,.31-.02,.14-.03,.29-.03,.43v.34h.35c.26-.02,.53,.04,.76,.15,.18,.1,.28,.29,.28,.49,0,.13-.02,.25-.07,.37-.04,.1-.13,.18-.23,.22-.1,.04-.21,.07-.32,.09-.14,.02-.27,.03-.41,.03h-.35v4.42c.01,.16,0,.31-.05,.46-.04,.13-.1,.25-.19,.35-.08,.09-.18,.17-.29,.22-.12,.05-.24,.07-.37,.07-.12,0-.24-.02-.35-.07-.11-.05-.21-.12-.29-.21-.09-.1-.16-.22-.2-.35-.05-.15-.07-.31-.06-.46v-4.42h-.41c-.12,0-.24-.01-.35-.04-.1-.02-.19-.07-.28-.13-.07-.06-.13-.13-.17-.22,0,.02-.02,.03-.02,.05-.05,.09-.13,.17-.23,.22-.11,.05-.23,.09-.35,.11-.15,.02-.3,.04-.46,.04h-.25v3.05c0,.13,.01,.25,.01,.35,0,.09,.01,.17,.02,.25,0,.06,.02,.12,.05,.18,.02,.05,.05,.09,.08,.13,.04,.04,.08,.06,.13,.08,.07,.02,.14,.03,.21,.03,.06,0,.11,0,.17-.01,.06,0,.14-.02,.22-.04s.16-.03,.23-.04c.06,0,.12-.01,.18-.01,.08,0,.15,.01,.22,.05,.07,.03,.14,.08,.2,.14,.06,.06,.11,.13,.14,.21,.03,.08,.05,.16,.05,.25,0,.14-.04,.28-.12,.4-.09,.12-.22,.22-.36,.29-.18,.08-.37,.14-.56,.17-.25,.04-.5,.06-.75,.06-.24,0-.48-.02-.71-.07-.19-.04-.37-.11-.53-.21-.14-.09-.26-.2-.36-.34-.1-.13-.17-.28-.21-.44-.05-.18-.08-.37-.1-.56-.02-.24-.03-.48-.03-.72v-3.19h-.16c-.12,0-.23-.01-.35-.05-.1-.03-.19-.08-.26-.14-.07-.06-.12-.14-.16-.22-.04-.09-.06-.18-.05-.27,0-.09,.02-.19,.06-.27,.04-.08,.1-.16,.17-.22h0c.08-.07,.17-.11,.27-.14,.12-.03,.24-.05,.36-.05m14.6,3.34c0,.25-.02,.5-.06,.74-.04,.23-.1,.46-.18,.68-.08,.21-.18,.41-.29,.61-.23,.37-.54,.69-.9,.93-.19,.12-.39,.23-.59,.31-.22,.09-.44,.15-.67,.19-.25,.04-.5,.06-.75,.06-.48,0-.96-.08-1.42-.25-.21-.08-.4-.18-.59-.31-.37-.24-.68-.56-.91-.93-.12-.19-.22-.39-.29-.6-.08-.22-.14-.45-.18-.68-.04-.25-.06-.49-.06-.74,0-.25,.02-.5,.06-.75,.04-.23,.1-.46,.18-.69,.08-.21,.18-.41,.29-.61,.23-.37,.53-.69,.9-.92,.19-.12,.38-.22,.59-.3,.22-.09,.44-.15,.67-.19,.24-.04,.49-.07,.74-.06,.25,0,.5,.02,.75,.06,.23,.04,.46,.1,.68,.19,.21,.08,.41,.19,.6,.31,.18,.12,.35,.26,.51,.42,.31,.32,.55,.7,.7,1.12,.08,.22,.14,.45,.18,.68,.04,.24,.06,.49,.06,.74m-1.84,0c0-.3-.04-.61-.11-.9-.07-.24-.18-.47-.33-.67-.14-.18-.31-.32-.51-.41-.21-.09-.43-.14-.66-.14-.15,0-.3,.02-.45,.06-.14,.04-.27,.1-.39,.18-.12,.08-.23,.19-.32,.31-.1,.13-.18,.28-.24,.43-.07,.17-.12,.35-.15,.53-.03,.2-.05,.41-.05,.62,0,.2,.02,.41,.05,.61,.03,.18,.08,.36,.15,.53,.06,.15,.14,.29,.24,.42,.09,.12,.2,.22,.32,.31,.12,.08,.25,.15,.39,.19,.15,.04,.3,.06,.46,.06,.23,0,.46-.04,.67-.14,.2-.1,.37-.24,.51-.42,.15-.2,.26-.43,.33-.67,.08-.29,.11-.59,.11-.9m4.7,.99v1.42c.03,.3-.07,.59-.26,.82-.08,.09-.18,.16-.29,.21-.12,.05-.24,.07-.37,.07-.25,0-.49-.1-.65-.28-.09-.1-.15-.22-.19-.35-.05-.15-.07-.31-.06-.47v-4.73c-.03-.31,.04-.63,.21-.9,.16-.21,.41-.33,.67-.32,.13,0,.27,.02,.39,.07,.11,.05,.2,.12,.27,.22,.07,.11,.13,.23,.16,.35,.02,.09,.04,.17,.05,.26,.06-.1,.13-.2,.2-.29,.1-.13,.2-.24,.33-.34,.12-.1,.25-.17,.4-.21,.16-.05,.33-.07,.5-.07,.18,0,.37,.02,.54,.07,.18,.05,.36,.12,.53,.21,.16,.08,.3,.19,.4,.33,.09,.13,.14,.28,.14,.44,0,.11-.02,.21-.06,.31-.04,.1-.1,.18-.18,.25-.07,.07-.15,.12-.24,.16-.08,.04-.18,.06-.27,.06-.06,0-.12-.01-.18-.03-.07-.02-.17-.05-.29-.09-.11-.04-.22-.06-.33-.08-.09-.02-.19-.03-.28-.03-.11,0-.21,.02-.32,.05-.09,.03-.18,.07-.25,.13-.08,.07-.14,.14-.2,.23-.06,.1-.11,.21-.15,.32-.04,.14-.08,.27-.11,.41-.03,.15-.05,.31-.07,.49-.01,.18-.03,.37-.03,.59s-.01,.44-.01,.7m9.37-.9v2.26c0,.16-.01,.33-.06,.49-.04,.13-.1,.26-.2,.36-.08,.09-.19,.17-.3,.22-.12,.05-.25,.07-.38,.07-.13,0-.26-.02-.38-.07-.11-.05-.22-.12-.3-.22-.09-.1-.16-.23-.2-.36-.04-.16-.06-.32-.06-.49v-2.7c0-.22-.01-.41-.02-.57s-.02-.3-.03-.42c-.01-.1-.04-.21-.08-.3-.03-.09-.08-.17-.14-.24-.06-.07-.14-.12-.22-.15-.11-.04-.22-.06-.34-.05-.42-.06-.84,.16-1.03,.53-.1,.22-.16,.44-.19,.68-.04,.31-.06,.62-.06,.93v2.3c0,.16-.01,.33-.06,.48-.04,.13-.1,.26-.19,.36-.08,.09-.18,.17-.3,.22-.24,.1-.51,.1-.76,0-.12-.05-.22-.13-.3-.22-.09-.1-.16-.23-.2-.36-.05-.16-.07-.32-.07-.48v-4.86c-.01-.15,0-.3,.05-.44,.03-.12,.09-.24,.18-.33,.08-.09,.17-.16,.28-.2,.11-.05,.23-.07,.35-.07,.12,0,.24,.02,.35,.06,.11,.04,.2,.11,.28,.19h0c.08,.09,.15,.19,.19,.3,.04,.12,.06,.25,.06,.37,.11-.12,.22-.23,.34-.33,.15-.13,.32-.24,.5-.33,.17-.09,.36-.15,.55-.19,.4-.08,.81-.08,1.21,0,.18,.04,.36,.11,.52,.2,.16,.09,.31,.2,.44,.33,.11,.12,.21,.24,.3,.38,.12-.14,.25-.27,.39-.39,.15-.13,.31-.24,.49-.33,.17-.09,.35-.15,.53-.2,.19-.04,.39-.07,.58-.07,.43-.01,.85,.08,1.23,.28,.17,.09,.32,.21,.46,.35,.13,.14,.24,.29,.32,.47,.09,.19,.14,.4,.17,.61,.04,.29,.06,.58,.06,.87v3.31c.03,.31-.06,.61-.25,.85-.08,.09-.19,.17-.3,.22-.12,.05-.25,.07-.38,.07-.13,0-.26-.02-.38-.07-.12-.05-.22-.13-.3-.22-.09-.1-.16-.23-.2-.36-.04-.16-.07-.32-.07-.48v-2.85c0-.18,0-.35-.02-.49,0-.14-.02-.27-.03-.38-.01-.1-.04-.19-.08-.28-.04-.09-.09-.17-.15-.24-.06-.07-.14-.12-.23-.15h0c-.11-.04-.23-.05-.34-.05-.1,0-.21,.02-.31,.05-.1,.03-.2,.08-.29,.14-.09,.06-.18,.14-.25,.22-.07,.09-.14,.18-.19,.28-.07,.18-.12,.38-.13,.57-.03,.3-.05,.61-.05,.92"/>
        <path id="Path_7" data-name="Path 7" class="cls-4" d="M69.62,27.04c.58,0,1.05,.47,1.06,1.05,0,.58-.47,1.05-1.05,1.06-.58,0-1.05-.47-1.06-1.05h0c0-.58,.47-1.05,1.05-1.06"/>
        <path id="Path_8" data-name="Path 8" class="cls-4" d="M55.53,32.1c0-.19,.44-.58,.24-.83-.41-.19-.89-.11-1.21,.2-.39,.39-.48,.88-.31,1.05,.14,.14,.9-.25,.99-.11,.06,.1,.81,3.83,6.52,3.47,6.81-.43,10.35-6.87,10.35-6.87,0,0,.92,.21,1.13,0,.18-.19-.26-.77-.6-1.01-.35-.23-.79-.28-1.18-.15-.3,.15,.25,.96,.25,.96-2.27,3.31-6.01,5.31-10.02,5.34-6.96,.17-6.16-1.86-6.16-2.05"/>
        <path id="Path_9" data-name="Path 9" class="cls-7" d="M44.02,20.7l3.44,5.18v-5.2c-.01-.16,0-.32,.05-.48,.03-.13,.1-.25,.18-.35,.08-.09,.18-.17,.29-.22,.12-.05,.24-.08,.37-.07,.13,0,.26,.02,.38,.07,.11,.05,.22,.12,.29,.21,.09,.1,.15,.22,.19,.35h0c.04,.16,.06,.32,.06,.48l.02,7.16c0,.85-.35,1.27-1.06,1.27-.08,0-.16,0-.25-.02-.08-.01-.15-.03-.22-.06-.07-.03-.14-.06-.2-.1h0c-.07-.04-.13-.09-.19-.14-.06-.05-.12-.11-.17-.17-.06-.06-.11-.13-.16-.2-.05-.07-.1-.14-.15-.21l-.15-.21h0s-3.34-5.1-3.34-5.1v5.11c.03,.3-.06,.6-.25,.84-.08,.09-.19,.17-.3,.22-.24,.1-.51,.1-.75,0-.12-.05-.22-.12-.3-.22-.09-.1-.15-.23-.19-.36-.04-.15-.07-.31-.06-.48l-.02-7.03c0-.14,0-.27,.02-.41,.01-.11,.04-.22,.08-.32h0c.04-.1,.1-.19,.17-.27,.07-.08,.16-.16,.25-.22h0c.09-.06,.2-.11,.3-.14,.11-.03,.21-.05,.32-.05,.08,0,.16,0,.24,.02,.07,.01,.14,.03,.21,.06h0c.06,.03,.12,.06,.18,.1,.06,.04,.11,.08,.15,.13,.05,.05,.1,.11,.14,.16,.05,.06,.09,.13,.14,.2l.02,.03h0c.08,.13,.17,.26,.27,.42m20.06,1.49h.12v-.95c0-.13,0-.26,0-.37s0-.2,.02-.28c.01-.15,.06-.3,.13-.43,.04-.06,.08-.12,.13-.18,.05-.05,.11-.1,.18-.14,.07-.04,.14-.07,.21-.09,.08-.02,.16-.03,.24-.03,.23,0,.46,.09,.63,.26,.06,.06,.11,.12,.16,.2,.04,.07,.07,.15,.09,.24,.02,.1,.03,.19,.04,.29,0,.11,.01,.24,.01,.38v1.09h.55c.11,0,.23,.01,.34,.04,.1,.03,.18,.08,.26,.14,.07,.06,.12,.13,.16,.22,.04,.08,.06,.18,.05,.27,0,.11-.02,.23-.08,.32-.05,.09-.13,.17-.23,.22-.11,.05-.23,.09-.35,.11-.15,.02-.3,.04-.46,.04h-.25v3.05c0,.13,0,.25,.01,.35s.01,.19,.02,.26c0,.06,.02,.12,.05,.18,.02,.05,.05,.09,.08,.13h0s.08,.06,.13,.08c.07,.02,.14,.03,.22,.03,.06,0,.11,0,.17-.01,.06,0,.14-.02,.22-.04h0c.08-.02,.16-.03,.23-.04,.06,0,.12-.01,.18-.01,.08,0,.15,.01,.22,.05,.07,.03,.14,.08,.2,.14,.06,.06,.11,.13,.14,.21,.03,.08,.05,.16,.05,.25,0,.14-.04,.28-.12,.4-.09,.12-.22,.22-.36,.29-.18,.08-.37,.14-.56,.17-.25,.04-.5,.06-.75,.06-.24,0-.48-.02-.71-.07-.19-.04-.37-.11-.53-.21h0c-.14-.09-.26-.2-.36-.34-.1-.13-.17-.28-.21-.44-.05-.18-.08-.37-.1-.56-.02-.24-.03-.48-.03-.72v-3.19h-.16c-.12,0-.23-.01-.34-.05-.1-.03-.19-.08-.26-.15-.07-.06-.13-.14-.16-.22-.04-.09-.05-.18-.05-.27,0-.09,.02-.19,.06-.27,.04-.08,.1-.16,.17-.22h0c.08-.07,.17-.11,.27-.14h0c.12-.03,.23-.05,.35-.05m-3.13,6.16l-1.18-1.72-1.19,1.73h0c-.09,.13-.18,.24-.25,.33-.07,.08-.14,.16-.22,.23-.07,.06-.15,.1-.24,.13-.09,.03-.19,.05-.29,.04-.11,0-.22-.02-.32-.05-.1-.04-.19-.09-.27-.16h0c-.08-.07-.14-.15-.19-.24-.04-.09-.06-.18-.06-.28,0-.12,.04-.24,.09-.35,.07-.16,.16-.31,.27-.45l1.5-2.16-1.34-1.79c-.11-.13-.2-.28-.27-.43-.06-.12-.09-.26-.1-.4,0-.09,.02-.19,.06-.27,.04-.09,.1-.17,.17-.23,.08-.07,.17-.13,.27-.16,.11-.04,.22-.05,.33-.05,.1,0,.2,.01,.29,.04,.09,.03,.17,.08,.24,.14h0c.08,.07,.15,.14,.22,.22,.08,.09,.16,.19,.25,.31l1.05,1.43,1.01-1.43c.09-.13,.17-.24,.25-.32,.07-.08,.14-.16,.22-.22h0c.07-.06,.15-.1,.24-.13,.09-.03,.19-.04,.29-.04,.11,0,.22,.02,.33,.05,.1,.03,.19,.09,.27,.15h0c.08,.06,.14,.14,.18,.23,.04,.09,.06,.18,.06,.28,0,.14-.03,.28-.1,.4h0c-.04,.07-.07,.14-.12,.2-.05,.07-.1,.15-.16,.23l-1.33,1.8,1.51,2.16c.1,.15,.2,.3,.28,.46,.06,.11,.09,.23,.1,.35,0,.2-.09,.39-.25,.51-.08,.07-.17,.12-.27,.16-.1,.04-.21,.06-.32,.05-.1,0-.2-.01-.29-.05-.09-.03-.17-.08-.25-.14h0c-.08-.07-.16-.15-.23-.23-.08-.09-.16-.2-.25-.32h-.01Zm-5.89-2.29h-3.25c0,.16,.02,.32,.06,.47,.04,.16,.09,.31,.17,.46,.07,.13,.15,.26,.25,.37,.09,.1,.2,.19,.32,.26h0c.12,.07,.24,.12,.38,.16h0c.14,.04,.28,.05,.42,.05,.09,0,.19,0,.28-.02,.09-.01,.17-.03,.25-.05h0c.08-.02,.16-.05,.24-.09,.08-.04,.16-.08,.23-.13h0c.08-.05,.15-.1,.22-.15s.14-.11,.2-.17,.14-.13,.23-.21h0c.08-.08,.18-.16,.28-.27h0c.12-.09,.26-.14,.41-.13,.09,0,.18,.01,.26,.04,.08,.02,.15,.06,.21,.12,.06,.05,.11,.12,.14,.2,.03,.08,.05,.17,.05,.26,0,.09-.02,.18-.05,.27-.04,.1-.08,.21-.14,.3h0c-.07,.11-.15,.22-.24,.31-.1,.11-.21,.21-.32,.29-.13,.1-.27,.19-.42,.27-.16,.08-.33,.16-.51,.21-.2,.07-.4,.11-.6,.14-.23,.03-.46,.05-.68,.05-.5,0-1-.07-1.47-.24-.42-.15-.8-.4-1.12-.72-.31-.32-.55-.7-.7-1.12-.16-.47-.24-.96-.23-1.45,0-.25,.02-.49,.06-.74,.04-.23,.09-.46,.17-.68,.07-.21,.17-.41,.28-.61,.11-.19,.24-.36,.39-.52h0c.15-.16,.31-.3,.49-.42,.18-.12,.38-.23,.59-.31,.22-.09,.44-.15,.68-.19,.24-.04,.49-.06,.74-.07,.61-.02,1.21,.13,1.74,.43h0c.23,.13,.45,.3,.64,.49,.18,.18,.33,.39,.46,.62,.12,.22,.21,.45,.27,.69,.06,.23,.09,.46,.09,.7,0,.19-.03,.38-.1,.56-.06,.14-.17,.26-.3,.34-.15,.07-.3,.12-.46,.15-.2,.03-.4,.05-.6,.05m-3.25-1.1h2.93c-.02-.23-.06-.46-.14-.67-.07-.19-.17-.37-.31-.52h0c-.13-.13-.28-.24-.45-.3-.18-.07-.38-.11-.57-.1-.19,0-.38,.03-.55,.11-.17,.07-.32,.18-.44,.31-.14,.15-.24,.33-.31,.52-.08,.21-.13,.43-.15,.66"/>
        <path id="Path_10" data-name="Path 10" class="cls-8" d="M182.47,18.1c.5,0,.98,.2,1.34,.55,.36,.35,.55,.84,.55,1.34,0,1.04-.86,1.88-1.9,1.88s-1.88-.86-1.88-1.9c0-.32,.09-.64,.25-.92,.16-.29,.4-.52,.69-.69,.29-.17,.62-.26,.95-.25m0,.37c-.27,0-.53,.07-.76,.2-.23,.13-.42,.32-.56,.55-.43,.73-.18,1.66,.55,2.09s1.66,.18,2.09-.55,.18-1.66-.55-2.09c-.23-.14-.5-.21-.77-.21m-.45,2.53h-.41v-2.01h.95c.13,0,.26,.02,.37,.07,.09,.04,.17,.11,.23,.2,.05,.09,.08,.19,.08,.3,0,.14-.05,.27-.14,.37-.11,.11-.25,.18-.4,.19,.08,.03,.16,.08,.21,.15,.08,.1,.15,.21,.21,.33l.24,.41h-.51l-.17-.32c-.06-.11-.12-.22-.2-.32-.04-.06-.1-.11-.16-.14-.06-.03-.13-.04-.2-.04h-.11v.82Zm0-1.69v.54h.33c.12,0,.23-.01,.34-.06,.08-.05,.13-.14,.12-.23,0-.08-.04-.15-.1-.19-.1-.05-.2-.08-.31-.07h-.37Z"/>
      </g>
      <g>
        <path id="Path_11" data-name="Path 11" class="cls-5" d="M14.27,48.08s0,.01,0,.02c-.28,.52-.37,1.12-.24,1.7,.16,.45,.55,.77,1.02,.86,.77,.13,1.35-.42,1.74-1.66v-.02s0-.01,.01-.02l.67-2.3c-1.27-.38-2.63,.23-3.2,1.43m-1.72-8.94c-.05,.17-.02,.36,.08,.5,.17,.16,.38,.27,.61,.31,.45,.02,.9-.09,1.29-.32,.37-.17,.72-.37,1.06-.58-.58-.32-1.22-.51-1.89-.55-.25,0-.5,.04-.73,.15h0c-.21,.1-.37,.28-.43,.5h0Zm6.77-1.94c.35,.22,.72,.41,1.09,.58,.4,.23,.85,.34,1.31,.32h0c.22-.03,.42-.14,.58-.3,.1-.15,.12-.33,.05-.5h0c-.08-.23-.25-.41-.47-.5-.23-.1-.48-.15-.73-.15-.65,.04-1.27,.22-1.83,.55m-2.02-1.37l1.67,1.15h0s.07-.04,.1-.06h0c.63-.37,1.34-.58,2.08-.62,.31-.01,.61,.05,.89,.18,.32,.13,.55,.4,.65,.73h0c.11,.27,.07,.59-.11,.82-.2,.24-.48,.39-.79,.44h0c-.54,.05-1.07-.08-1.54-.35-.43-.19-.84-.42-1.24-.67l-.04-.02h-.01s-.01,0-.01,0c-.45,.25-.89,.52-1.33,.81h0c-.49,.31-.92,.58-1.31,.8,1.81,.89,3.43,2.13,4.75,3.65h0c.31,.4,.59,.81,.86,1.22,.07,.12,.15,.24,.23,.37h0c.35,.62,.61,1.29,.78,1.99,.17,.69,.22,1.41,.14,2.12-.08,.7-.27,1.38-.58,2.01-.19,.39-.42,.75-.69,1.08h0c-.1,.12-.2,.23-.29,.34h0c-.43,.5-.94,.93-1.51,1.26-.49,.29-1.02,.52-1.57,.68-.53,.14-1.07,.23-1.61,.25-.66,.02-1.32-.07-1.96-.25h0c-.57-.17-1.11-.43-1.6-.78-.5-.36-.94-.79-1.31-1.28-.29-.38-.52-.8-.7-1.24h0c-.2-.47-.33-.97-.39-1.48h0c-.02-.17-.03-.34-.03-.51,0-.12,0-.24,0-.36h0c.22-2.64,2.44-4.67,5.09-4.64,1.28-.03,2.52,.46,3.42,1.37,1.07,1.07,1.53,2.6,1.23,4.09h0c-.33,1.49-1.12,2.24-2.36,2.24h-.02c-.71,0-1.31-.54-1.38-1.24-.45,.91-1.06,1.27-1.84,1.1-.59-.11-1.08-.52-1.29-1.08h0c-.17-.67-.08-1.38,.26-1.98v-.02c.67-1.43,2.32-2.11,3.8-1.57l.18,.04-.78,2.66c-.08,1.07,.28,1.65,1.08,1.74,1.04-.03,1.7-.68,1.99-1.95h0c.28-1.36-.14-2.77-1.12-3.77-.84-.84-1.98-1.3-3.17-1.26-2.46-.02-4.52,1.86-4.73,4.31,0,.11,0,.22-.01,.34,0,.16,.01,.32,.03,.48,.06,.47,.18,.94,.37,1.38h0c.17,.42,.39,.81,.65,1.17,.35,.46,.76,.86,1.23,1.19,.46,.33,.96,.57,1.5,.74h0c.6,.17,1.22,.25,1.85,.24,.52-.02,1.03-.1,1.52-.24,.52-.15,1.03-.36,1.49-.64,.54-.32,1.02-.72,1.43-1.19h0c.09-.11,.19-.22,.28-.33h0c.25-.31,.47-.65,.65-1.01,.29-.59,.47-1.23,.54-1.89h0c.08-.67,.03-1.34-.13-1.99h0c-.16-.66-.41-1.3-.74-1.89h0c-.08-.13-.15-.25-.23-.37-.26-.4-.53-.8-.84-1.19h0c-1.35-1.53-2.99-2.78-4.84-3.65-.4,.27-.82,.5-1.26,.7-.46,.27-.99,.39-1.52,.35h0c-.31-.04-.6-.2-.81-.43h0c-.18-.23-.24-.53-.15-.81,.08-.33,.31-.59,.62-.73h0c.28-.13,.59-.19,.89-.18,.78,.04,1.55,.28,2.22,.68,0,0,.02,0,.02,0h0c.43-.23,.92-.53,1.48-.89h0c.39-.26,.79-.51,1.19-.74l-1.53-1.05,.2-.29Z"/>
        <path id="Path_12" data-name="Path 12" class="cls-3" d="M1.71,28.15C-1.99,20.45,2.3,9.09,5.97,1.67c7.76,4.91,18.49,12.96,20.06,21.14,2.72,14.13-17.91,18.67-24.31,5.35"/>
        <path id="Path_13" data-name="Path 13" class="cls-1" d="M14.24,36.4c-5.49,.05-10.5-3.13-12.8-8.12C-2.2,20.69,1.74,9.55,5.7,1.54l.15-.3,.28,.18C14.48,6.7,24.77,14.69,26.32,22.74c1.33,5.65-2.02,11.35-7.61,12.95-1.44,.47-2.95,.71-4.47,.71M6.09,2.1C2.24,9.97-1.51,20.74,1.99,28.03c2.91,6.23,10.02,9.28,16.54,7.1,4.15-1.37,8.52-5.4,7.2-12.27C24.24,15.1,14.29,7.32,6.09,2.1"/>
        <path id="Path_14" data-name="Path 14" class="cls-3" d="M8.49,22.84C10.02,14.66,20.71,6.56,28.45,1.62c3.7,7.41,8.03,18.75,4.37,26.47-6.34,13.35-26.99,8.9-24.33-5.25"/>
        <path id="Path_15" data-name="Path 15" class="cls-1" d="M20.26,36.39c-1.49,0-2.98-.23-4.4-.69-5.59-1.57-8.97-7.25-7.67-12.92C9.71,14.73,19.96,6.69,28.29,1.37l.28-.18,.15,.3c3.99,7.99,7.99,19.11,4.37,26.73-2.28,5.02-7.31,8.22-12.83,8.17M28.33,2.05C20.15,7.31,10.24,15.14,8.78,22.89c-1.29,6.87,3.11,10.89,7.26,12.24,6.53,2.15,13.63-.93,16.51-7.17,3.46-7.3-.34-18.06-4.22-25.91"/>
        <path id="Path_16" data-name="Path 16" class="cls-6" d="M4.67,25.14C3.55,16.92,11.3,6.84,17.2,.44c5.93,6.38,13.73,16.42,12.64,24.64-1.87,14.23-23.24,14.27-25.18,.06"/>
        <path id="Path_17" data-name="Path 17" class="cls-1" d="M17.26,36.07c-5.68,0-11.85-3.37-12.88-10.9C3.28,17.06,10.63,7.13,16.99,.24l.22-.24,.22,.24c6.39,6.87,13.79,16.76,12.72,24.88-.99,7.55-7.18,10.94-12.86,10.95h-.03ZM4.97,25.1c.98,7.17,6.87,10.37,12.29,10.37h.03c5.42-.01,11.32-3.24,12.27-10.43,1.02-7.79-6.1-17.39-12.35-24.16C10.98,7.68,3.91,17.31,4.97,25.1"/>
        <path id="Path_18" data-name="Path 18" class="cls-2" d="M16.66,36.06c-1.98-9.53-5.43-21.53-13.45-27.38,5.89,1.8,11.6,7.55,14.04,12.86,2.42-5.32,8.1-11.1,13.98-12.93-7.99,5.9-11.39,17.91-13.33,27.45h-1.24Z"/>
        <path id="Path_19" data-name="Path 19" class="cls-2" d="M17.23,11.26c1.53-.08,2.82,1.09,2.91,2.62-.08,1.53-1.37,2.71-2.9,2.64-1.53,.08-2.83-1.09-2.91-2.62,.08-1.53,1.37-2.7,2.9-2.63"/>
        <path id="Path_20" data-name="Path 20" class="cls-2" d="M22.43,13.07l-6.38,.02-4.02-2.47,6.38-.02,4.02,2.47Z"/>
        <path id="Path_21" data-name="Path 21" class="cls-2" d="M21.24,17.12h-.41l.2-4.33h.39l.23,4.33h-.41Z"/>
      </g>
    </g>
  </g>
</svg>